<svg xmlns="http://www.w3.org/2000/svg" xmlns:xlink="http://www.w3.org/1999/xlink" width="300" zoomAndPan="magnify" viewBox="0 0 224.87999 225" height="300" preserveAspectRatio="xMidYMid meet" version="1.0"><defs><g/><clipPath id="d1abec2d5a"><path d="M 0 0.0585938 L 224.761719 0.0585938 L 224.761719 224.9375 L 0 224.9375 Z M 0 0.0585938 " clip-rule="nonzero"/></clipPath><clipPath id="2f3f33f0e6"><path d="M 0 0.0585938 L 44 0.0585938 L 44 39 L 0 39 Z M 0 0.0585938 " clip-rule="nonzero"/></clipPath><clipPath id="536177bd5f"><path d="M 2 0.0585938 L 60.777344 0.0585938 L 60.777344 67.734375 L 2 67.734375 Z M 2 0.0585938 " clip-rule="nonzero"/></clipPath><clipPath id="0a0d3656f0"><path d="M 14.878906 69.175781 L 59 69.175781 L 59 108 L 14.878906 108 Z M 14.878906 69.175781 " clip-rule="nonzero"/></clipPath><clipPath id="93980e56db"><path d="M 17 69.175781 L 75.65625 69.175781 L 75.65625 136.851562 L 17 136.851562 Z M 17 69.175781 " clip-rule="nonzero"/></clipPath></defs><g clip-path="url(#d1abec2d5a)"><path fill="#ffffff" d="M 0 0.0585938 L 224.878906 0.0585938 L 224.878906 232.4375 L 0 232.4375 Z M 0 0.0585938 " fill-opacity="1" fill-rule="nonzero"/><path fill="#ffffff" d="M 0 0.0585938 L 224.878906 0.0585938 L 224.878906 224.941406 L 0 224.941406 Z M 0 0.0585938 " fill-opacity="1" fill-rule="nonzero"/><path fill="#ffffff" d="M 0 0.0585938 L 224.878906 0.0585938 L 224.878906 224.941406 L 0 224.941406 Z M 0 0.0585938 " fill-opacity="1" fill-rule="nonzero"/></g><g clip-path="url(#2f3f33f0e6)"><path fill="#ffffff" d="M 11.609375 0.0585938 C 11.617188 0.0742188 11.628906 0.0898438 11.640625 0.105469 C 14.660156 5.164062 17.550781 10.304688 20.496094 15.410156 C 20.871094 16.054688 21.332031 16.648438 21.925781 17.527344 C 25.320312 11.609375 28.609375 5.882812 31.953125 0.0585938 L 43.722656 0.0585938 C 36.425781 12.75 29.191406 25.34375 21.890625 38.046875 C 21.46875 37.429688 21.25 37.160156 21.078125 36.863281 C 16.820312 29.445312 12.554688 22.023438 8.300781 14.59375 C 7.730469 13.597656 7.15625 12.601562 6.589844 11.605469 C 6.476562 11.402344 6.359375 11.214844 6.242188 11.035156 C 6.210938 10.992188 6.1875 10.949219 6.15625 10.90625 L 4.785156 8.527344 L 4.6875 8.363281 L -0.113281 0.0585938 Z M 11.609375 0.0585938 " fill-opacity="1" fill-rule="nonzero"/></g><g clip-path="url(#536177bd5f)"><path fill="#ffffff" d="M 21.78125 46.183594 C 22.382812 45.242188 22.703125 44.777344 22.984375 44.289062 C 31.453125 29.589844 39.910156 14.882812 48.40625 0.199219 C 48.433594 0.15625 48.46875 0.109375 48.496094 0.0585938 L 60.753906 0.0585938 C 47.636719 22.875 34.863281 45.089844 21.84375 67.734375 C 16.484375 58.488281 11.378906 49.699219 2.941406 35.109375 L 9.089844 24.417969 C 15.613281 35.605469 18.628906 40.78125 21.78125 46.183594 Z M 21.78125 46.183594 " fill-opacity="1" fill-rule="nonzero"/></g><path fill="#ffffff" d="M 21.890625 38.046875 L 8.300781 14.589844 C 12.554688 22.023438 16.816406 29.441406 21.078125 36.859375 C 21.25 37.160156 21.46875 37.429688 21.890625 38.046875 Z M 21.890625 38.046875 " fill-opacity="1" fill-rule="nonzero"/><path fill="#ffffff" d="M 4.785156 8.523438 L 6.15625 10.90625 C 6.1875 10.949219 6.214844 10.992188 6.246094 11.035156 Z M 4.785156 8.523438 " fill-opacity="1" fill-rule="nonzero"/><g fill="#ffffff" fill-opacity="1"><g transform="translate(49.211598, 63.372085)"><g><path d="M 10.921875 -27.78125 L 1 -27.78125 L 1 -34.734375 L 28.28125 -34.734375 L 28.28125 -27.78125 L 18.359375 -27.78125 L 18.359375 0 L 10.921875 0 Z M 10.921875 -27.78125 "/></g></g></g><g fill="#ffffff" fill-opacity="1"><g transform="translate(73.761756, 63.372085)"><g><path d="M 13.640625 -34.734375 L 22.078125 -34.734375 L 35.46875 0 L 27.53125 0 L 24.5625 -7.9375 L 11.15625 -7.9375 L 8.1875 0 L 0.25 0 Z M 22.078125 -14.640625 L 17.953125 -26.046875 L 17.765625 -26.046875 L 13.640625 -14.640625 Z M 22.078125 -14.640625 "/></g></g></g><g fill="#ffffff" fill-opacity="1"><g transform="translate(104.759648, 63.372085)"><g><path d="M 14.390625 0.75 C 12.140625 0.75 10.175781 0.46875 8.5 -0.09375 C 6.832031 -0.65625 5.4375 -1.285156 4.3125 -1.984375 C 2.988281 -2.773438 1.882812 -3.6875 1 -4.71875 L 5.953125 -9.671875 C 6.546875 -8.972656 7.257812 -8.34375 8.09375 -7.78125 C 8.78125 -7.320312 9.628906 -6.898438 10.640625 -6.515625 C 11.648438 -6.140625 12.816406 -5.953125 14.140625 -5.953125 C 16.117188 -5.953125 17.5625 -6.332031 18.46875 -7.09375 C 19.382812 -7.851562 19.84375 -8.796875 19.84375 -9.921875 C 19.84375 -10.910156 19.410156 -11.691406 18.546875 -12.265625 C 17.691406 -12.847656 16.617188 -13.367188 15.328125 -13.828125 C 14.035156 -14.296875 12.644531 -14.78125 11.15625 -15.28125 C 9.675781 -15.78125 8.289062 -16.429688 7 -17.234375 C 5.707031 -18.046875 4.628906 -19.085938 3.765625 -20.359375 C 2.910156 -21.640625 2.484375 -23.285156 2.484375 -25.296875 C 2.484375 -26.648438 2.769531 -27.945312 3.34375 -29.1875 C 3.925781 -30.4375 4.753906 -31.519531 5.828125 -32.4375 C 6.898438 -33.363281 8.222656 -34.097656 9.796875 -34.640625 C 11.367188 -35.191406 13.144531 -35.46875 15.125 -35.46875 C 17.050781 -35.46875 18.75 -35.21875 20.21875 -34.71875 C 21.6875 -34.226562 22.898438 -33.6875 23.859375 -33.09375 C 24.984375 -32.394531 25.960938 -31.617188 26.796875 -30.765625 L 21.828125 -25.796875 C 21.296875 -26.359375 20.71875 -26.851562 20.09375 -27.28125 C 19.53125 -27.644531 18.851562 -27.984375 18.0625 -28.296875 C 17.269531 -28.617188 16.375 -28.78125 15.375 -28.78125 C 13.488281 -28.78125 12.148438 -28.445312 11.359375 -27.78125 C 10.566406 -27.125 10.171875 -26.296875 10.171875 -25.296875 C 10.171875 -24.304688 10.597656 -23.519531 11.453125 -22.9375 C 12.316406 -22.363281 13.394531 -21.84375 14.6875 -21.375 C 15.976562 -20.914062 17.363281 -20.4375 18.84375 -19.9375 C 20.332031 -19.445312 21.722656 -18.796875 23.015625 -17.984375 C 24.304688 -17.171875 25.378906 -16.128906 26.234375 -14.859375 C 27.097656 -13.585938 27.53125 -11.941406 27.53125 -9.921875 C 27.53125 -8.492188 27.234375 -7.132812 26.640625 -5.84375 C 26.046875 -4.5625 25.175781 -3.429688 24.03125 -2.453125 C 22.894531 -1.484375 21.515625 -0.707031 19.890625 -0.125 C 18.273438 0.457031 16.441406 0.75 14.390625 0.75 Z M 14.390625 0.75 "/></g></g></g><g fill="#ffffff" fill-opacity="1"><g transform="translate(129.06182, 63.372085)"><g><path d="M 4.46875 -34.734375 L 11.90625 -34.734375 L 11.90625 -19.84375 L 25.296875 -34.734375 L 34.234375 -34.734375 L 21.328125 -20.34375 L 35.21875 0 L 26.546875 0 L 16.375 -14.890625 L 11.90625 -10.171875 L 11.90625 0 L 4.46875 0 Z M 4.46875 -34.734375 "/></g></g></g><g fill="#ffffff" fill-opacity="1"><g transform="translate(159.064306, 63.372085)"><g><path d="M 5.203125 -34.734375 L 8.9375 -34.734375 L 8.9375 0 L 5.203125 0 Z M 5.203125 -34.734375 "/></g></g></g><g fill="#ffffff" fill-opacity="1"><g transform="translate(168.487084, 63.372085)"><g><path d="M 11.90625 -31.25 L 1 -31.25 L 1 -34.734375 L 26.546875 -34.734375 L 26.546875 -31.25 L 15.625 -31.25 L 15.625 0 L 11.90625 0 Z M 11.90625 -31.25 "/></g></g></g><g fill="#ffffff" fill-opacity="1"><g transform="translate(55.577891, 81.355813)"><g><path d="M 3.90625 0.1875 C 3.34375 0.1875 2.859375 0.109375 2.453125 -0.046875 C 2.046875 -0.210938 1.707031 -0.394531 1.4375 -0.59375 C 1.113281 -0.8125 0.851562 -1.078125 0.65625 -1.390625 L 1.578125 -2.328125 C 1.753906 -2.078125 1.953125 -1.859375 2.171875 -1.671875 C 2.367188 -1.492188 2.613281 -1.335938 2.90625 -1.203125 C 3.195312 -1.078125 3.53125 -1.015625 3.90625 -1.015625 C 4.5625 -1.015625 5.050781 -1.15625 5.375 -1.4375 C 5.695312 -1.726562 5.859375 -2.085938 5.859375 -2.515625 C 5.859375 -2.847656 5.734375 -3.113281 5.484375 -3.3125 C 5.242188 -3.507812 4.945312 -3.671875 4.59375 -3.796875 C 4.238281 -3.929688 3.851562 -4.054688 3.4375 -4.171875 C 3.019531 -4.285156 2.632812 -4.4375 2.28125 -4.625 C 1.925781 -4.8125 1.625 -5.054688 1.375 -5.359375 C 1.132812 -5.671875 1.015625 -6.082031 1.015625 -6.59375 C 1.015625 -6.914062 1.085938 -7.226562 1.234375 -7.53125 C 1.378906 -7.832031 1.582031 -8.097656 1.84375 -8.328125 C 2.101562 -8.554688 2.414062 -8.742188 2.78125 -8.890625 C 3.144531 -9.035156 3.550781 -9.109375 4 -9.109375 C 4.46875 -9.109375 4.878906 -9.039062 5.234375 -8.90625 C 5.585938 -8.78125 5.882812 -8.640625 6.125 -8.484375 C 6.414062 -8.316406 6.664062 -8.117188 6.875 -7.890625 L 5.9375 -6.96875 C 5.800781 -7.144531 5.644531 -7.300781 5.46875 -7.4375 C 5.289062 -7.539062 5.082031 -7.640625 4.84375 -7.734375 C 4.601562 -7.835938 4.320312 -7.890625 4 -7.890625 C 3.488281 -7.890625 3.082031 -7.753906 2.78125 -7.484375 C 2.476562 -7.210938 2.328125 -6.914062 2.328125 -6.59375 C 2.328125 -6.269531 2.445312 -6.015625 2.6875 -5.828125 C 2.925781 -5.648438 3.222656 -5.5 3.578125 -5.375 C 3.929688 -5.25 4.316406 -5.125 4.734375 -5 C 5.160156 -4.882812 5.546875 -4.726562 5.890625 -4.53125 C 6.242188 -4.34375 6.539062 -4.085938 6.78125 -3.765625 C 7.03125 -3.441406 7.15625 -3.023438 7.15625 -2.515625 C 7.15625 -2.140625 7.078125 -1.785156 6.921875 -1.453125 C 6.773438 -1.128906 6.5625 -0.84375 6.28125 -0.59375 C 6.007812 -0.351562 5.671875 -0.160156 5.265625 -0.015625 C 4.859375 0.117188 4.40625 0.1875 3.90625 0.1875 Z M 3.90625 0.1875 "/></g></g></g><g fill="#ffffff" fill-opacity="1"><g transform="translate(61.799545, 81.355813)"><g><path d="M 1.484375 -8.921875 L 2.78125 -8.921875 L 2.78125 -7.796875 C 2.945312 -8.035156 3.144531 -8.253906 3.375 -8.453125 C 3.59375 -8.609375 3.851562 -8.753906 4.15625 -8.890625 C 4.46875 -9.035156 4.847656 -9.109375 5.296875 -9.109375 C 5.828125 -9.109375 6.273438 -9.023438 6.640625 -8.859375 C 7.015625 -8.691406 7.316406 -8.503906 7.546875 -8.296875 C 7.804688 -8.078125 8.015625 -7.820312 8.171875 -7.53125 C 8.347656 -7.820312 8.578125 -8.078125 8.859375 -8.296875 C 9.109375 -8.503906 9.425781 -8.691406 9.8125 -8.859375 C 10.207031 -9.023438 10.679688 -9.109375 11.234375 -9.109375 C 11.722656 -9.109375 12.175781 -9.023438 12.59375 -8.859375 C 13.019531 -8.703125 13.382812 -8.460938 13.6875 -8.140625 C 14 -7.816406 14.238281 -7.414062 14.40625 -6.9375 C 14.582031 -6.457031 14.671875 -5.910156 14.671875 -5.296875 L 14.671875 0 L 13.375 0 L 13.375 -5.296875 C 13.375 -6.148438 13.164062 -6.796875 12.75 -7.234375 C 12.332031 -7.671875 11.796875 -7.890625 11.140625 -7.890625 C 10.816406 -7.890625 10.507812 -7.820312 10.21875 -7.6875 C 9.9375 -7.550781 9.679688 -7.351562 9.453125 -7.09375 C 9.234375 -6.84375 9.054688 -6.53125 8.921875 -6.15625 C 8.796875 -5.789062 8.734375 -5.378906 8.734375 -4.921875 L 8.734375 0 L 7.4375 0 L 7.4375 -5.296875 C 7.4375 -6.140625 7.226562 -6.78125 6.8125 -7.21875 C 6.394531 -7.664062 5.859375 -7.890625 5.203125 -7.890625 C 4.878906 -7.890625 4.570312 -7.820312 4.28125 -7.6875 C 3.988281 -7.550781 3.726562 -7.351562 3.5 -7.09375 C 3.28125 -6.84375 3.101562 -6.53125 2.96875 -6.15625 C 2.84375 -5.789062 2.78125 -5.378906 2.78125 -4.921875 L 2.78125 0 L 1.484375 0 Z M 1.484375 -8.921875 "/></g></g></g><g fill="#ffffff" fill-opacity="1"><g transform="translate(76.1937, 81.355813)"><g><path d="M 4 0.1875 C 3.519531 0.1875 3.085938 0.113281 2.703125 -0.03125 C 2.328125 -0.1875 2 -0.382812 1.71875 -0.625 C 1.4375 -0.863281 1.21875 -1.140625 1.0625 -1.453125 C 0.914062 -1.773438 0.84375 -2.097656 0.84375 -2.421875 C 0.84375 -3.160156 1.0625 -3.757812 1.5 -4.21875 C 1.945312 -4.675781 2.59375 -4.972656 3.4375 -5.109375 L 6.875 -5.671875 C 6.875 -6.328125 6.664062 -6.859375 6.25 -7.265625 C 5.832031 -7.679688 5.296875 -7.890625 4.640625 -7.890625 C 4.242188 -7.890625 3.890625 -7.820312 3.578125 -7.6875 C 3.273438 -7.550781 3.019531 -7.40625 2.8125 -7.25 C 2.5625 -7.050781 2.335938 -6.832031 2.140625 -6.59375 L 1.296875 -7.4375 C 1.546875 -7.738281 1.835938 -8.015625 2.171875 -8.265625 C 2.453125 -8.472656 2.796875 -8.664062 3.203125 -8.84375 C 3.617188 -9.019531 4.097656 -9.109375 4.640625 -9.109375 C 5.148438 -9.109375 5.617188 -9.019531 6.046875 -8.84375 C 6.484375 -8.664062 6.859375 -8.421875 7.171875 -8.109375 C 7.492188 -7.804688 7.738281 -7.441406 7.90625 -7.015625 C 8.082031 -6.597656 8.171875 -6.148438 8.171875 -5.671875 L 8.171875 0 L 6.875 0 L 6.875 -1.203125 C 6.6875 -0.941406 6.453125 -0.707031 6.171875 -0.5 C 5.921875 -0.320312 5.613281 -0.160156 5.25 -0.015625 C 4.894531 0.117188 4.476562 0.1875 4 0.1875 Z M 4 -1.015625 C 4.414062 -1.015625 4.800781 -1.085938 5.15625 -1.234375 C 5.507812 -1.378906 5.8125 -1.582031 6.0625 -1.84375 C 6.320312 -2.101562 6.519531 -2.414062 6.65625 -2.78125 C 6.800781 -3.144531 6.875 -3.550781 6.875 -4 L 6.875 -4.546875 L 3.8125 -4 C 2.695312 -3.78125 2.140625 -3.253906 2.140625 -2.421875 C 2.140625 -2.046875 2.296875 -1.71875 2.609375 -1.4375 C 2.921875 -1.15625 3.382812 -1.015625 4 -1.015625 Z M 4 -1.015625 "/></g></g></g><g fill="#ffffff" fill-opacity="1"><g transform="translate(84.087, 81.355813)"><g><path d="M 1.484375 -8.921875 L 2.78125 -8.921875 L 2.78125 -7.703125 C 2.976562 -7.953125 3.222656 -8.179688 3.515625 -8.390625 C 3.765625 -8.566406 4.070312 -8.726562 4.4375 -8.875 C 4.800781 -9.03125 5.242188 -9.109375 5.765625 -9.109375 L 6.125 -9.109375 L 6.125 -7.796875 L 5.578125 -7.796875 C 5.203125 -7.796875 4.847656 -7.726562 4.515625 -7.59375 C 4.179688 -7.457031 3.882812 -7.265625 3.625 -7.015625 C 3.363281 -6.773438 3.15625 -6.476562 3 -6.125 C 2.851562 -5.769531 2.78125 -5.367188 2.78125 -4.921875 L 2.78125 0 L 1.484375 0 Z M 1.484375 -8.921875 "/></g></g></g><g fill="#ffffff" fill-opacity="1"><g transform="translate(88.729876, 81.355813)"><g><path d="M 4.6875 0.1875 C 3.914062 0.1875 3.3125 -0.0351562 2.875 -0.484375 C 2.445312 -0.929688 2.234375 -1.578125 2.234375 -2.421875 L 2.234375 -7.703125 L 0.5625 -7.703125 L 0.5625 -8.921875 L 1.578125 -8.921875 C 2.078125 -8.921875 2.328125 -9.226562 2.328125 -9.84375 L 2.328125 -11.890625 L 3.53125 -11.890625 L 3.53125 -8.921875 L 5.484375 -8.921875 L 5.484375 -7.703125 L 3.53125 -7.703125 L 3.53125 -2.421875 C 3.53125 -1.941406 3.640625 -1.585938 3.859375 -1.359375 C 4.078125 -1.128906 4.367188 -1.015625 4.734375 -1.015625 C 4.898438 -1.015625 5.054688 -1.023438 5.203125 -1.046875 C 5.347656 -1.078125 5.476562 -1.113281 5.59375 -1.15625 C 5.726562 -1.195312 5.84375 -1.242188 5.9375 -1.296875 L 5.9375 -0.09375 C 5.832031 -0.0390625 5.710938 0.0078125 5.578125 0.0625 C 5.460938 0.09375 5.328125 0.117188 5.171875 0.140625 C 5.015625 0.171875 4.851562 0.1875 4.6875 0.1875 Z M 4.6875 0.1875 "/></g></g></g><g fill="#ffffff" fill-opacity="1"><g transform="translate(93.651357, 81.355813)"><g/></g></g><g fill="#ffffff" fill-opacity="1"><g transform="translate(95.786758, 81.355813)"><g><path d="M 4.6875 0.1875 C 3.914062 0.1875 3.3125 -0.0351562 2.875 -0.484375 C 2.445312 -0.929688 2.234375 -1.578125 2.234375 -2.421875 L 2.234375 -7.703125 L 0.5625 -7.703125 L 0.5625 -8.921875 L 1.578125 -8.921875 C 2.078125 -8.921875 2.328125 -9.226562 2.328125 -9.84375 L 2.328125 -11.890625 L 3.53125 -11.890625 L 3.53125 -8.921875 L 5.484375 -8.921875 L 5.484375 -7.703125 L 3.53125 -7.703125 L 3.53125 -2.421875 C 3.53125 -1.941406 3.640625 -1.585938 3.859375 -1.359375 C 4.078125 -1.128906 4.367188 -1.015625 4.734375 -1.015625 C 4.898438 -1.015625 5.054688 -1.023438 5.203125 -1.046875 C 5.347656 -1.078125 5.476562 -1.113281 5.59375 -1.15625 C 5.726562 -1.195312 5.84375 -1.242188 5.9375 -1.296875 L 5.9375 -0.09375 C 5.832031 -0.0390625 5.710938 0.0078125 5.578125 0.0625 C 5.460938 0.09375 5.328125 0.117188 5.171875 0.140625 C 5.015625 0.171875 4.851562 0.1875 4.6875 0.1875 Z M 4.6875 0.1875 "/></g></g></g><g fill="#ffffff" fill-opacity="1"><g transform="translate(100.708239, 81.355813)"><g><path d="M 4 0.1875 C 3.519531 0.1875 3.085938 0.113281 2.703125 -0.03125 C 2.328125 -0.1875 2 -0.382812 1.71875 -0.625 C 1.4375 -0.863281 1.21875 -1.140625 1.0625 -1.453125 C 0.914062 -1.773438 0.84375 -2.097656 0.84375 -2.421875 C 0.84375 -3.160156 1.0625 -3.757812 1.5 -4.21875 C 1.945312 -4.675781 2.59375 -4.972656 3.4375 -5.109375 L 6.875 -5.671875 C 6.875 -6.328125 6.664062 -6.859375 6.25 -7.265625 C 5.832031 -7.679688 5.296875 -7.890625 4.640625 -7.890625 C 4.242188 -7.890625 3.890625 -7.820312 3.578125 -7.6875 C 3.273438 -7.550781 3.019531 -7.40625 2.8125 -7.25 C 2.5625 -7.050781 2.335938 -6.832031 2.140625 -6.59375 L 1.296875 -7.4375 C 1.546875 -7.738281 1.835938 -8.015625 2.171875 -8.265625 C 2.453125 -8.472656 2.796875 -8.664062 3.203125 -8.84375 C 3.617188 -9.019531 4.097656 -9.109375 4.640625 -9.109375 C 5.148438 -9.109375 5.617188 -9.019531 6.046875 -8.84375 C 6.484375 -8.664062 6.859375 -8.421875 7.171875 -8.109375 C 7.492188 -7.804688 7.738281 -7.441406 7.90625 -7.015625 C 8.082031 -6.597656 8.171875 -6.148438 8.171875 -5.671875 L 8.171875 0 L 6.875 0 L 6.875 -1.203125 C 6.6875 -0.941406 6.453125 -0.707031 6.171875 -0.5 C 5.921875 -0.320312 5.613281 -0.160156 5.25 -0.015625 C 4.894531 0.117188 4.476562 0.1875 4 0.1875 Z M 4 -1.015625 C 4.414062 -1.015625 4.800781 -1.085938 5.15625 -1.234375 C 5.507812 -1.378906 5.8125 -1.582031 6.0625 -1.84375 C 6.320312 -2.101562 6.519531 -2.414062 6.65625 -2.78125 C 6.800781 -3.144531 6.875 -3.550781 6.875 -4 L 6.875 -4.546875 L 3.8125 -4 C 2.695312 -3.78125 2.140625 -3.253906 2.140625 -2.421875 C 2.140625 -2.046875 2.296875 -1.71875 2.609375 -1.4375 C 2.921875 -1.15625 3.382812 -1.015625 4 -1.015625 Z M 4 -1.015625 "/></g></g></g><g fill="#ffffff" fill-opacity="1"><g transform="translate(108.601539, 81.355813)"><g><path d="M 3.90625 0.1875 C 3.34375 0.1875 2.859375 0.109375 2.453125 -0.046875 C 2.046875 -0.210938 1.707031 -0.394531 1.4375 -0.59375 C 1.113281 -0.8125 0.851562 -1.078125 0.65625 -1.390625 L 1.578125 -2.328125 C 1.753906 -2.078125 1.953125 -1.859375 2.171875 -1.671875 C 2.367188 -1.492188 2.613281 -1.335938 2.90625 -1.203125 C 3.195312 -1.078125 3.53125 -1.015625 3.90625 -1.015625 C 4.5625 -1.015625 5.050781 -1.15625 5.375 -1.4375 C 5.695312 -1.726562 5.859375 -2.085938 5.859375 -2.515625 C 5.859375 -2.847656 5.734375 -3.113281 5.484375 -3.3125 C 5.242188 -3.507812 4.945312 -3.671875 4.59375 -3.796875 C 4.238281 -3.929688 3.851562 -4.054688 3.4375 -4.171875 C 3.019531 -4.285156 2.632812 -4.4375 2.28125 -4.625 C 1.925781 -4.8125 1.625 -5.054688 1.375 -5.359375 C 1.132812 -5.671875 1.015625 -6.082031 1.015625 -6.59375 C 1.015625 -6.914062 1.085938 -7.226562 1.234375 -7.53125 C 1.378906 -7.832031 1.582031 -8.097656 1.84375 -8.328125 C 2.101562 -8.554688 2.414062 -8.742188 2.78125 -8.890625 C 3.144531 -9.035156 3.550781 -9.109375 4 -9.109375 C 4.46875 -9.109375 4.878906 -9.039062 5.234375 -8.90625 C 5.585938 -8.78125 5.882812 -8.640625 6.125 -8.484375 C 6.414062 -8.316406 6.664062 -8.117188 6.875 -7.890625 L 5.9375 -6.96875 C 5.800781 -7.144531 5.644531 -7.300781 5.46875 -7.4375 C 5.289062 -7.539062 5.082031 -7.640625 4.84375 -7.734375 C 4.601562 -7.835938 4.320312 -7.890625 4 -7.890625 C 3.488281 -7.890625 3.082031 -7.753906 2.78125 -7.484375 C 2.476562 -7.210938 2.328125 -6.914062 2.328125 -6.59375 C 2.328125 -6.269531 2.445312 -6.015625 2.6875 -5.828125 C 2.925781 -5.648438 3.222656 -5.5 3.578125 -5.375 C 3.929688 -5.25 4.316406 -5.125 4.734375 -5 C 5.160156 -4.882812 5.546875 -4.726562 5.890625 -4.53125 C 6.242188 -4.34375 6.539062 -4.085938 6.78125 -3.765625 C 7.03125 -3.441406 7.15625 -3.023438 7.15625 -2.515625 C 7.15625 -2.140625 7.078125 -1.785156 6.921875 -1.453125 C 6.773438 -1.128906 6.5625 -0.84375 6.28125 -0.59375 C 6.007812 -0.351562 5.671875 -0.160156 5.265625 -0.015625 C 4.859375 0.117188 4.40625 0.1875 3.90625 0.1875 Z M 3.90625 0.1875 "/></g></g></g><g fill="#ffffff" fill-opacity="1"><g transform="translate(114.823193, 81.355813)"><g><path d="M 1.578125 -13 L 2.875 -13 L 2.875 -4.1875 L 7.34375 -8.921875 L 8.921875 -8.921875 L 5.484375 -5.296875 L 9.28125 0 L 7.796875 0 L 4.640625 -4.359375 L 2.875 -2.515625 L 2.875 0 L 1.578125 0 Z M 1.578125 -13 "/></g></g></g><g fill="#ffffff" fill-opacity="1"><g transform="translate(122.530756, 81.355813)"><g/></g></g><g fill="#ffffff" fill-opacity="1"><g transform="translate(124.666156, 81.355813)"><g><path d="M 1.578125 -13 L 2.875 -13 L 2.875 0 L 1.578125 0 Z M 1.578125 -13 "/></g></g></g><g fill="#ffffff" fill-opacity="1"><g transform="translate(127.358774, 81.355813)"><g><path d="M 1.484375 -8.921875 L 2.78125 -8.921875 L 2.78125 0 L 1.484375 0 Z M 2.140625 -11.046875 C 1.898438 -11.046875 1.695312 -11.125 1.53125 -11.28125 C 1.375 -11.445312 1.296875 -11.648438 1.296875 -11.890625 C 1.296875 -12.128906 1.375 -12.328125 1.53125 -12.484375 C 1.695312 -12.640625 1.898438 -12.71875 2.140625 -12.71875 C 2.367188 -12.71875 2.5625 -12.640625 2.71875 -12.484375 C 2.882812 -12.328125 2.96875 -12.128906 2.96875 -11.890625 C 2.96875 -11.648438 2.882812 -11.445312 2.71875 -11.28125 C 2.5625 -11.125 2.367188 -11.046875 2.140625 -11.046875 Z M 2.140625 -11.046875 "/></g></g></g><g fill="#ffffff" fill-opacity="1"><g transform="translate(129.865654, 81.355813)"><g><path d="M 3.90625 0.1875 C 3.34375 0.1875 2.859375 0.109375 2.453125 -0.046875 C 2.046875 -0.210938 1.707031 -0.394531 1.4375 -0.59375 C 1.113281 -0.8125 0.851562 -1.078125 0.65625 -1.390625 L 1.578125 -2.328125 C 1.753906 -2.078125 1.953125 -1.859375 2.171875 -1.671875 C 2.367188 -1.492188 2.613281 -1.335938 2.90625 -1.203125 C 3.195312 -1.078125 3.53125 -1.015625 3.90625 -1.015625 C 4.5625 -1.015625 5.050781 -1.15625 5.375 -1.4375 C 5.695312 -1.726562 5.859375 -2.085938 5.859375 -2.515625 C 5.859375 -2.847656 5.734375 -3.113281 5.484375 -3.3125 C 5.242188 -3.507812 4.945312 -3.671875 4.59375 -3.796875 C 4.238281 -3.929688 3.851562 -4.054688 3.4375 -4.171875 C 3.019531 -4.285156 2.632812 -4.4375 2.28125 -4.625 C 1.925781 -4.8125 1.625 -5.054688 1.375 -5.359375 C 1.132812 -5.671875 1.015625 -6.082031 1.015625 -6.59375 C 1.015625 -6.914062 1.085938 -7.226562 1.234375 -7.53125 C 1.378906 -7.832031 1.582031 -8.097656 1.84375 -8.328125 C 2.101562 -8.554688 2.414062 -8.742188 2.78125 -8.890625 C 3.144531 -9.035156 3.550781 -9.109375 4 -9.109375 C 4.46875 -9.109375 4.878906 -9.039062 5.234375 -8.90625 C 5.585938 -8.78125 5.882812 -8.640625 6.125 -8.484375 C 6.414062 -8.316406 6.664062 -8.117188 6.875 -7.890625 L 5.9375 -6.96875 C 5.800781 -7.144531 5.644531 -7.300781 5.46875 -7.4375 C 5.289062 -7.539062 5.082031 -7.640625 4.84375 -7.734375 C 4.601562 -7.835938 4.320312 -7.890625 4 -7.890625 C 3.488281 -7.890625 3.082031 -7.753906 2.78125 -7.484375 C 2.476562 -7.210938 2.328125 -6.914062 2.328125 -6.59375 C 2.328125 -6.269531 2.445312 -6.015625 2.6875 -5.828125 C 2.925781 -5.648438 3.222656 -5.5 3.578125 -5.375 C 3.929688 -5.25 4.316406 -5.125 4.734375 -5 C 5.160156 -4.882812 5.546875 -4.726562 5.890625 -4.53125 C 6.242188 -4.34375 6.539062 -4.085938 6.78125 -3.765625 C 7.03125 -3.441406 7.15625 -3.023438 7.15625 -2.515625 C 7.15625 -2.140625 7.078125 -1.785156 6.921875 -1.453125 C 6.773438 -1.128906 6.5625 -0.84375 6.28125 -0.59375 C 6.007812 -0.351562 5.671875 -0.160156 5.265625 -0.015625 C 4.859375 0.117188 4.40625 0.1875 3.90625 0.1875 Z M 3.90625 0.1875 "/></g></g></g><g fill="#ffffff" fill-opacity="1"><g transform="translate(136.087308, 81.355813)"><g><path d="M 4.6875 0.1875 C 3.914062 0.1875 3.3125 -0.0351562 2.875 -0.484375 C 2.445312 -0.929688 2.234375 -1.578125 2.234375 -2.421875 L 2.234375 -7.703125 L 0.5625 -7.703125 L 0.5625 -8.921875 L 1.578125 -8.921875 C 2.078125 -8.921875 2.328125 -9.226562 2.328125 -9.84375 L 2.328125 -11.890625 L 3.53125 -11.890625 L 3.53125 -8.921875 L 5.484375 -8.921875 L 5.484375 -7.703125 L 3.53125 -7.703125 L 3.53125 -2.421875 C 3.53125 -1.941406 3.640625 -1.585938 3.859375 -1.359375 C 4.078125 -1.128906 4.367188 -1.015625 4.734375 -1.015625 C 4.898438 -1.015625 5.054688 -1.023438 5.203125 -1.046875 C 5.347656 -1.078125 5.476562 -1.113281 5.59375 -1.15625 C 5.726562 -1.195312 5.84375 -1.242188 5.9375 -1.296875 L 5.9375 -0.09375 C 5.832031 -0.0390625 5.710938 0.0078125 5.578125 0.0625 C 5.460938 0.09375 5.328125 0.117188 5.171875 0.140625 C 5.015625 0.171875 4.851562 0.1875 4.6875 0.1875 Z M 4.6875 0.1875 "/></g></g></g><g clip-path="url(#0a0d3656f0)"><path fill="#000000" d="M 26.488281 69.175781 C 26.496094 69.191406 26.511719 69.207031 26.519531 69.21875 C 29.539062 74.277344 32.429688 79.421875 35.378906 84.527344 C 35.75 85.171875 36.210938 85.765625 36.804688 86.644531 C 40.199219 80.726562 43.488281 75 46.832031 69.175781 L 58.601562 69.175781 C 51.308594 81.867188 44.070312 94.460938 36.769531 107.164062 C 36.347656 106.546875 36.132812 106.273438 35.957031 105.980469 C 31.699219 98.558594 27.433594 91.140625 23.179688 83.707031 C 22.609375 82.714844 22.035156 81.71875 21.46875 80.722656 C 21.355469 80.519531 21.242188 80.332031 21.121094 80.152344 C 21.089844 80.109375 21.066406 80.066406 21.035156 80.023438 L 19.664062 77.640625 L 19.570312 77.476562 L 14.765625 69.175781 Z M 26.488281 69.175781 " fill-opacity="1" fill-rule="nonzero"/></g><g clip-path="url(#93980e56db)"><path fill="#000000" d="M 36.660156 115.300781 C 37.261719 114.359375 37.582031 113.894531 37.867188 113.40625 C 46.332031 98.707031 54.789062 84 63.285156 69.316406 C 63.3125 69.273438 63.347656 69.222656 63.375 69.175781 L 75.632812 69.175781 C 62.515625 91.992188 49.742188 114.207031 36.722656 136.851562 C 31.363281 127.605469 26.257812 118.816406 17.820312 104.222656 L 23.96875 93.535156 C 30.492188 104.722656 33.507812 109.898438 36.660156 115.300781 Z M 36.660156 115.300781 " fill-opacity="1" fill-rule="nonzero"/></g><path fill="#000000" d="M 36.769531 107.164062 L 23.179688 83.707031 C 27.433594 91.140625 31.695312 98.558594 35.957031 105.976562 C 36.132812 106.273438 36.347656 106.546875 36.769531 107.164062 Z M 36.769531 107.164062 " fill-opacity="1" fill-rule="nonzero"/><path fill="#000000" d="M 19.667969 77.640625 L 21.035156 80.023438 C 21.066406 80.066406 21.09375 80.109375 21.125 80.152344 Z M 19.667969 77.640625 " fill-opacity="1" fill-rule="nonzero"/><g fill="#000000" fill-opacity="1"><g transform="translate(64.090876, 132.609831)"><g><path d="M 10.90625 -27.765625 L 0.984375 -27.765625 L 0.984375 -34.71875 L 28.265625 -34.71875 L 28.265625 -27.765625 L 18.34375 -27.765625 L 18.34375 0 L 10.90625 0 Z M 10.90625 -27.765625 "/></g></g></g><g fill="#000000" fill-opacity="1"><g transform="translate(88.636717, 132.609831)"><g><path d="M 13.640625 -34.71875 L 22.0625 -34.71875 L 35.453125 0 L 27.53125 0 L 24.546875 -7.9375 L 11.15625 -7.9375 L 8.1875 0 L 0.25 0 Z M 22.0625 -14.625 L 17.953125 -26.03125 L 17.75 -26.03125 L 13.640625 -14.625 Z M 22.0625 -14.625 "/></g></g></g><g fill="#000000" fill-opacity="1"><g transform="translate(119.629339, 132.609831)"><g><path d="M 14.375 0.75 C 12.132812 0.75 10.175781 0.46875 8.5 -0.09375 C 6.832031 -0.65625 5.4375 -1.285156 4.3125 -1.984375 C 2.988281 -2.773438 1.878906 -3.6875 0.984375 -4.71875 L 5.953125 -9.671875 C 6.546875 -8.972656 7.253906 -8.34375 8.078125 -7.78125 C 8.773438 -7.320312 9.628906 -6.898438 10.640625 -6.515625 C 11.648438 -6.140625 12.816406 -5.953125 14.140625 -5.953125 C 16.117188 -5.953125 17.5625 -6.332031 18.46875 -7.09375 C 19.382812 -7.851562 19.84375 -8.796875 19.84375 -9.921875 C 19.84375 -10.910156 19.410156 -11.691406 18.546875 -12.265625 C 17.691406 -12.847656 16.617188 -13.367188 15.328125 -13.828125 C 14.035156 -14.296875 12.644531 -14.773438 11.15625 -15.265625 C 9.664062 -15.765625 8.273438 -16.421875 6.984375 -17.234375 C 5.703125 -18.046875 4.628906 -19.085938 3.765625 -20.359375 C 2.910156 -21.628906 2.484375 -23.273438 2.484375 -25.296875 C 2.484375 -26.648438 2.769531 -27.945312 3.34375 -29.1875 C 3.925781 -30.425781 4.753906 -31.507812 5.828125 -32.4375 C 6.898438 -33.363281 8.222656 -34.097656 9.796875 -34.640625 C 11.367188 -35.179688 13.144531 -35.453125 15.125 -35.453125 C 17.039062 -35.453125 18.734375 -35.203125 20.203125 -34.703125 C 21.679688 -34.210938 22.898438 -33.671875 23.859375 -33.078125 C 24.984375 -32.378906 25.957031 -31.601562 26.78125 -30.75 L 21.828125 -25.78125 C 21.296875 -26.34375 20.710938 -26.84375 20.078125 -27.28125 C 19.523438 -27.644531 18.847656 -27.984375 18.046875 -28.296875 C 17.253906 -28.609375 16.363281 -28.765625 15.375 -28.765625 C 13.488281 -28.765625 12.148438 -28.429688 11.359375 -27.765625 C 10.566406 -27.109375 10.171875 -26.285156 10.171875 -25.296875 C 10.171875 -24.304688 10.597656 -23.519531 11.453125 -22.9375 C 12.316406 -22.351562 13.390625 -21.832031 14.671875 -21.375 C 15.960938 -20.914062 17.351562 -20.4375 18.84375 -19.9375 C 20.332031 -19.4375 21.722656 -18.78125 23.015625 -17.96875 C 24.304688 -17.164062 25.378906 -16.125 26.234375 -14.84375 C 27.097656 -13.570312 27.53125 -11.929688 27.53125 -9.921875 C 27.53125 -8.492188 27.226562 -7.132812 26.625 -5.84375 C 26.03125 -4.5625 25.160156 -3.429688 24.015625 -2.453125 C 22.878906 -1.472656 21.5 -0.691406 19.875 -0.109375 C 18.257812 0.460938 16.425781 0.75 14.375 0.75 Z M 14.375 0.75 "/></g></g></g><g fill="#000000" fill-opacity="1"><g transform="translate(143.927216, 132.609831)"><g><path d="M 4.46875 -34.71875 L 11.90625 -34.71875 L 11.90625 -19.84375 L 25.296875 -34.71875 L 34.21875 -34.71875 L 21.328125 -20.328125 L 35.21875 0 L 26.53125 0 L 16.359375 -14.875 L 11.90625 -10.171875 L 11.90625 0 L 4.46875 0 Z M 4.46875 -34.71875 "/></g></g></g><g fill="#000000" fill-opacity="1"><g transform="translate(173.918979, 132.609831)"><g><path d="M 5.203125 -34.71875 L 8.921875 -34.71875 L 8.921875 0 L 5.203125 0 Z M 5.203125 -34.71875 "/></g></g></g><g fill="#000000" fill-opacity="1"><g transform="translate(183.339671, 132.609831)"><g><path d="M 11.90625 -31.25 L 0.984375 -31.25 L 0.984375 -34.71875 L 26.53125 -34.71875 L 26.53125 -31.25 L 15.625 -31.25 L 15.625 0 L 11.90625 0 Z M 11.90625 -31.25 "/></g></g></g><g fill="#000000" fill-opacity="1"><g transform="translate(70.457167, 149.739909)"><g><path d="M 3.90625 0.1875 C 3.34375 0.1875 2.859375 0.109375 2.453125 -0.046875 C 2.046875 -0.210938 1.707031 -0.394531 1.4375 -0.59375 C 1.113281 -0.8125 0.851562 -1.078125 0.65625 -1.390625 L 1.578125 -2.328125 C 1.753906 -2.078125 1.953125 -1.859375 2.171875 -1.671875 C 2.367188 -1.492188 2.613281 -1.335938 2.90625 -1.203125 C 3.195312 -1.078125 3.53125 -1.015625 3.90625 -1.015625 C 4.5625 -1.015625 5.050781 -1.15625 5.375 -1.4375 C 5.695312 -1.726562 5.859375 -2.085938 5.859375 -2.515625 C 5.859375 -2.847656 5.734375 -3.113281 5.484375 -3.3125 C 5.242188 -3.507812 4.945312 -3.671875 4.59375 -3.796875 C 4.238281 -3.929688 3.851562 -4.054688 3.4375 -4.171875 C 3.019531 -4.285156 2.632812 -4.4375 2.28125 -4.625 C 1.925781 -4.8125 1.625 -5.054688 1.375 -5.359375 C 1.132812 -5.671875 1.015625 -6.082031 1.015625 -6.59375 C 1.015625 -6.914062 1.085938 -7.226562 1.234375 -7.53125 C 1.378906 -7.832031 1.582031 -8.097656 1.84375 -8.328125 C 2.101562 -8.554688 2.414062 -8.742188 2.78125 -8.890625 C 3.144531 -9.035156 3.550781 -9.109375 4 -9.109375 C 4.46875 -9.109375 4.878906 -9.039062 5.234375 -8.90625 C 5.585938 -8.78125 5.882812 -8.640625 6.125 -8.484375 C 6.414062 -8.316406 6.664062 -8.117188 6.875 -7.890625 L 5.9375 -6.96875 C 5.800781 -7.144531 5.644531 -7.300781 5.46875 -7.4375 C 5.289062 -7.539062 5.082031 -7.640625 4.84375 -7.734375 C 4.601562 -7.835938 4.320312 -7.890625 4 -7.890625 C 3.488281 -7.890625 3.082031 -7.753906 2.78125 -7.484375 C 2.476562 -7.210938 2.328125 -6.914062 2.328125 -6.59375 C 2.328125 -6.269531 2.445312 -6.015625 2.6875 -5.828125 C 2.925781 -5.648438 3.222656 -5.5 3.578125 -5.375 C 3.929688 -5.25 4.316406 -5.125 4.734375 -5 C 5.160156 -4.882812 5.546875 -4.726562 5.890625 -4.53125 C 6.242188 -4.34375 6.539062 -4.085938 6.78125 -3.765625 C 7.03125 -3.441406 7.15625 -3.023438 7.15625 -2.515625 C 7.15625 -2.140625 7.078125 -1.785156 6.921875 -1.453125 C 6.773438 -1.128906 6.5625 -0.84375 6.28125 -0.59375 C 6.007812 -0.351562 5.671875 -0.160156 5.265625 -0.015625 C 4.859375 0.117188 4.40625 0.1875 3.90625 0.1875 Z M 3.90625 0.1875 "/></g></g></g><g fill="#000000" fill-opacity="1"><g transform="translate(76.674743, 149.739909)"><g><path d="M 1.484375 -8.921875 L 2.78125 -8.921875 L 2.78125 -7.796875 C 2.945312 -8.035156 3.144531 -8.253906 3.375 -8.453125 C 3.59375 -8.609375 3.851562 -8.753906 4.15625 -8.890625 C 4.46875 -9.035156 4.847656 -9.109375 5.296875 -9.109375 C 5.828125 -9.109375 6.273438 -9.023438 6.640625 -8.859375 C 7.015625 -8.691406 7.316406 -8.503906 7.546875 -8.296875 C 7.804688 -8.078125 8.015625 -7.820312 8.171875 -7.53125 C 8.347656 -7.820312 8.578125 -8.078125 8.859375 -8.296875 C 9.109375 -8.503906 9.425781 -8.691406 9.8125 -8.859375 C 10.207031 -9.023438 10.679688 -9.109375 11.234375 -9.109375 C 11.722656 -9.109375 12.175781 -9.023438 12.59375 -8.859375 C 13.019531 -8.703125 13.382812 -8.460938 13.6875 -8.140625 C 14 -7.816406 14.238281 -7.414062 14.40625 -6.9375 C 14.582031 -6.457031 14.671875 -5.910156 14.671875 -5.296875 L 14.671875 0 L 13.375 0 L 13.375 -5.296875 C 13.375 -6.148438 13.164062 -6.796875 12.75 -7.234375 C 12.332031 -7.671875 11.796875 -7.890625 11.140625 -7.890625 C 10.816406 -7.890625 10.507812 -7.820312 10.21875 -7.6875 C 9.9375 -7.550781 9.679688 -7.351562 9.453125 -7.09375 C 9.234375 -6.84375 9.054688 -6.53125 8.921875 -6.15625 C 8.796875 -5.789062 8.734375 -5.378906 8.734375 -4.921875 L 8.734375 0 L 7.4375 0 L 7.4375 -5.296875 C 7.4375 -6.140625 7.226562 -6.78125 6.8125 -7.21875 C 6.394531 -7.664062 5.859375 -7.890625 5.203125 -7.890625 C 4.878906 -7.890625 4.570312 -7.820312 4.28125 -7.6875 C 3.988281 -7.550781 3.726562 -7.351562 3.5 -7.09375 C 3.28125 -6.84375 3.101562 -6.53125 2.96875 -6.15625 C 2.84375 -5.789062 2.78125 -5.378906 2.78125 -4.921875 L 2.78125 0 L 1.484375 0 Z M 1.484375 -8.921875 "/></g></g></g><g fill="#000000" fill-opacity="1"><g transform="translate(91.060654, 149.739909)"><g><path d="M 4 0.1875 C 3.519531 0.1875 3.085938 0.113281 2.703125 -0.03125 C 2.328125 -0.1875 2 -0.382812 1.71875 -0.625 C 1.4375 -0.863281 1.21875 -1.140625 1.0625 -1.453125 C 0.914062 -1.773438 0.84375 -2.097656 0.84375 -2.421875 C 0.84375 -3.160156 1.0625 -3.757812 1.5 -4.21875 C 1.945312 -4.675781 2.59375 -4.972656 3.4375 -5.109375 L 6.875 -5.671875 C 6.875 -6.328125 6.664062 -6.859375 6.25 -7.265625 C 5.832031 -7.679688 5.296875 -7.890625 4.640625 -7.890625 C 4.242188 -7.890625 3.890625 -7.820312 3.578125 -7.6875 C 3.273438 -7.550781 3.019531 -7.40625 2.8125 -7.25 C 2.5625 -7.050781 2.335938 -6.832031 2.140625 -6.59375 L 1.296875 -7.4375 C 1.546875 -7.738281 1.835938 -8.015625 2.171875 -8.265625 C 2.453125 -8.472656 2.796875 -8.664062 3.203125 -8.84375 C 3.617188 -9.019531 4.097656 -9.109375 4.640625 -9.109375 C 5.148438 -9.109375 5.617188 -9.019531 6.046875 -8.84375 C 6.484375 -8.664062 6.859375 -8.421875 7.171875 -8.109375 C 7.492188 -7.804688 7.738281 -7.441406 7.90625 -7.015625 C 8.082031 -6.597656 8.171875 -6.148438 8.171875 -5.671875 L 8.171875 0 L 6.875 0 L 6.875 -1.203125 C 6.6875 -0.941406 6.453125 -0.707031 6.171875 -0.5 C 5.921875 -0.320312 5.613281 -0.160156 5.25 -0.015625 C 4.894531 0.117188 4.476562 0.1875 4 0.1875 Z M 4 -1.015625 C 4.414062 -1.015625 4.800781 -1.085938 5.15625 -1.234375 C 5.507812 -1.378906 5.8125 -1.582031 6.0625 -1.84375 C 6.320312 -2.101562 6.519531 -2.414062 6.65625 -2.78125 C 6.800781 -3.144531 6.875 -3.550781 6.875 -4 L 6.875 -4.546875 L 3.8125 -4 C 2.695312 -3.78125 2.140625 -3.253906 2.140625 -2.421875 C 2.140625 -2.046875 2.296875 -1.71875 2.609375 -1.4375 C 2.921875 -1.15625 3.382812 -1.015625 4 -1.015625 Z M 4 -1.015625 "/></g></g></g><g fill="#000000" fill-opacity="1"><g transform="translate(98.949022, 149.739909)"><g><path d="M 1.484375 -8.921875 L 2.78125 -8.921875 L 2.78125 -7.703125 C 2.976562 -7.953125 3.222656 -8.179688 3.515625 -8.390625 C 3.765625 -8.566406 4.070312 -8.726562 4.4375 -8.875 C 4.800781 -9.03125 5.242188 -9.109375 5.765625 -9.109375 L 6.125 -9.109375 L 6.125 -7.796875 L 5.578125 -7.796875 C 5.203125 -7.796875 4.847656 -7.726562 4.515625 -7.59375 C 4.179688 -7.457031 3.882812 -7.265625 3.625 -7.015625 C 3.363281 -6.773438 3.15625 -6.476562 3 -6.125 C 2.851562 -5.769531 2.78125 -5.367188 2.78125 -4.921875 L 2.78125 0 L 1.484375 0 Z M 1.484375 -8.921875 "/></g></g></g><g fill="#000000" fill-opacity="1"><g transform="translate(103.588624, 149.739909)"><g><path d="M 4.6875 0.1875 C 3.914062 0.1875 3.3125 -0.0351562 2.875 -0.484375 C 2.445312 -0.929688 2.234375 -1.578125 2.234375 -2.421875 L 2.234375 -7.703125 L 0.5625 -7.703125 L 0.5625 -8.921875 L 1.578125 -8.921875 C 2.078125 -8.921875 2.328125 -9.226562 2.328125 -9.84375 L 2.328125 -11.890625 L 3.53125 -11.890625 L 3.53125 -8.921875 L 5.484375 -8.921875 L 5.484375 -7.703125 L 3.53125 -7.703125 L 3.53125 -2.421875 C 3.53125 -1.941406 3.640625 -1.585938 3.859375 -1.359375 C 4.078125 -1.128906 4.367188 -1.015625 4.734375 -1.015625 C 4.898438 -1.015625 5.054688 -1.023438 5.203125 -1.046875 C 5.347656 -1.078125 5.476562 -1.113281 5.59375 -1.15625 C 5.726562 -1.195312 5.84375 -1.242188 5.9375 -1.296875 L 5.9375 -0.09375 C 5.832031 -0.0390625 5.710938 0.0078125 5.578125 0.0625 C 5.460938 0.09375 5.328125 0.117188 5.171875 0.140625 C 5.015625 0.171875 4.851562 0.1875 4.6875 0.1875 Z M 4.6875 0.1875 "/></g></g></g><g fill="#000000" fill-opacity="1"><g transform="translate(108.506696, 149.739909)"><g/></g></g><g fill="#000000" fill-opacity="1"><g transform="translate(110.640109, 149.739909)"><g><path d="M 4.6875 0.1875 C 3.914062 0.1875 3.3125 -0.0351562 2.875 -0.484375 C 2.445312 -0.929688 2.234375 -1.578125 2.234375 -2.421875 L 2.234375 -7.703125 L 0.5625 -7.703125 L 0.5625 -8.921875 L 1.578125 -8.921875 C 2.078125 -8.921875 2.328125 -9.226562 2.328125 -9.84375 L 2.328125 -11.890625 L 3.53125 -11.890625 L 3.53125 -8.921875 L 5.484375 -8.921875 L 5.484375 -7.703125 L 3.53125 -7.703125 L 3.53125 -2.421875 C 3.53125 -1.941406 3.640625 -1.585938 3.859375 -1.359375 C 4.078125 -1.128906 4.367188 -1.015625 4.734375 -1.015625 C 4.898438 -1.015625 5.054688 -1.023438 5.203125 -1.046875 C 5.347656 -1.078125 5.476562 -1.113281 5.59375 -1.15625 C 5.726562 -1.195312 5.84375 -1.242188 5.9375 -1.296875 L 5.9375 -0.09375 C 5.832031 -0.0390625 5.710938 0.0078125 5.578125 0.0625 C 5.460938 0.09375 5.328125 0.117188 5.171875 0.140625 C 5.015625 0.171875 4.851562 0.1875 4.6875 0.1875 Z M 4.6875 0.1875 "/></g></g></g><g fill="#000000" fill-opacity="1"><g transform="translate(115.55818, 149.739909)"><g><path d="M 4 0.1875 C 3.519531 0.1875 3.085938 0.113281 2.703125 -0.03125 C 2.328125 -0.1875 2 -0.382812 1.71875 -0.625 C 1.4375 -0.863281 1.21875 -1.140625 1.0625 -1.453125 C 0.914062 -1.773438 0.84375 -2.097656 0.84375 -2.421875 C 0.84375 -3.160156 1.0625 -3.757812 1.5 -4.21875 C 1.945312 -4.675781 2.59375 -4.972656 3.4375 -5.109375 L 6.875 -5.671875 C 6.875 -6.328125 6.664062 -6.859375 6.25 -7.265625 C 5.832031 -7.679688 5.296875 -7.890625 4.640625 -7.890625 C 4.242188 -7.890625 3.890625 -7.820312 3.578125 -7.6875 C 3.273438 -7.550781 3.019531 -7.40625 2.8125 -7.25 C 2.5625 -7.050781 2.335938 -6.832031 2.140625 -6.59375 L 1.296875 -7.4375 C 1.546875 -7.738281 1.835938 -8.015625 2.171875 -8.265625 C 2.453125 -8.472656 2.796875 -8.664062 3.203125 -8.84375 C 3.617188 -9.019531 4.097656 -9.109375 4.640625 -9.109375 C 5.148438 -9.109375 5.617188 -9.019531 6.046875 -8.84375 C 6.484375 -8.664062 6.859375 -8.421875 7.171875 -8.109375 C 7.492188 -7.804688 7.738281 -7.441406 7.90625 -7.015625 C 8.082031 -6.597656 8.171875 -6.148438 8.171875 -5.671875 L 8.171875 0 L 6.875 0 L 6.875 -1.203125 C 6.6875 -0.941406 6.453125 -0.707031 6.171875 -0.5 C 5.921875 -0.320312 5.613281 -0.160156 5.25 -0.015625 C 4.894531 0.117188 4.476562 0.1875 4 0.1875 Z M 4 -1.015625 C 4.414062 -1.015625 4.800781 -1.085938 5.15625 -1.234375 C 5.507812 -1.378906 5.8125 -1.582031 6.0625 -1.84375 C 6.320312 -2.101562 6.519531 -2.414062 6.65625 -2.78125 C 6.800781 -3.144531 6.875 -3.550781 6.875 -4 L 6.875 -4.546875 L 3.8125 -4 C 2.695312 -3.78125 2.140625 -3.253906 2.140625 -2.421875 C 2.140625 -2.046875 2.296875 -1.71875 2.609375 -1.4375 C 2.921875 -1.15625 3.382812 -1.015625 4 -1.015625 Z M 4 -1.015625 "/></g></g></g><g fill="#000000" fill-opacity="1"><g transform="translate(123.446548, 149.739909)"><g><path d="M 3.90625 0.1875 C 3.34375 0.1875 2.859375 0.109375 2.453125 -0.046875 C 2.046875 -0.210938 1.707031 -0.394531 1.4375 -0.59375 C 1.113281 -0.8125 0.851562 -1.078125 0.65625 -1.390625 L 1.578125 -2.328125 C 1.753906 -2.078125 1.953125 -1.859375 2.171875 -1.671875 C 2.367188 -1.492188 2.613281 -1.335938 2.90625 -1.203125 C 3.195312 -1.078125 3.53125 -1.015625 3.90625 -1.015625 C 4.5625 -1.015625 5.050781 -1.15625 5.375 -1.4375 C 5.695312 -1.726562 5.859375 -2.085938 5.859375 -2.515625 C 5.859375 -2.847656 5.734375 -3.113281 5.484375 -3.3125 C 5.242188 -3.507812 4.945312 -3.671875 4.59375 -3.796875 C 4.238281 -3.929688 3.851562 -4.054688 3.4375 -4.171875 C 3.019531 -4.285156 2.632812 -4.4375 2.28125 -4.625 C 1.925781 -4.8125 1.625 -5.054688 1.375 -5.359375 C 1.132812 -5.671875 1.015625 -6.082031 1.015625 -6.59375 C 1.015625 -6.914062 1.085938 -7.226562 1.234375 -7.53125 C 1.378906 -7.832031 1.582031 -8.097656 1.84375 -8.328125 C 2.101562 -8.554688 2.414062 -8.742188 2.78125 -8.890625 C 3.144531 -9.035156 3.550781 -9.109375 4 -9.109375 C 4.46875 -9.109375 4.878906 -9.039062 5.234375 -8.90625 C 5.585938 -8.78125 5.882812 -8.640625 6.125 -8.484375 C 6.414062 -8.316406 6.664062 -8.117188 6.875 -7.890625 L 5.9375 -6.96875 C 5.800781 -7.144531 5.644531 -7.300781 5.46875 -7.4375 C 5.289062 -7.539062 5.082031 -7.640625 4.84375 -7.734375 C 4.601562 -7.835938 4.320312 -7.890625 4 -7.890625 C 3.488281 -7.890625 3.082031 -7.753906 2.78125 -7.484375 C 2.476562 -7.210938 2.328125 -6.914062 2.328125 -6.59375 C 2.328125 -6.269531 2.445312 -6.015625 2.6875 -5.828125 C 2.925781 -5.648438 3.222656 -5.5 3.578125 -5.375 C 3.929688 -5.25 4.316406 -5.125 4.734375 -5 C 5.160156 -4.882812 5.546875 -4.726562 5.890625 -4.53125 C 6.242188 -4.34375 6.539062 -4.085938 6.78125 -3.765625 C 7.03125 -3.441406 7.15625 -3.023438 7.15625 -2.515625 C 7.15625 -2.140625 7.078125 -1.785156 6.921875 -1.453125 C 6.773438 -1.128906 6.5625 -0.84375 6.28125 -0.59375 C 6.007812 -0.351562 5.671875 -0.160156 5.265625 -0.015625 C 4.859375 0.117188 4.40625 0.1875 3.90625 0.1875 Z M 3.90625 0.1875 "/></g></g></g><g fill="#000000" fill-opacity="1"><g transform="translate(129.664124, 149.739909)"><g><path d="M 1.578125 -13 L 2.875 -13 L 2.875 -4.1875 L 7.34375 -8.921875 L 8.921875 -8.921875 L 5.484375 -5.296875 L 9.28125 0 L 7.796875 0 L 4.640625 -4.359375 L 2.875 -2.515625 L 2.875 0 L 1.578125 0 Z M 1.578125 -13 "/></g></g></g><g fill="#000000" fill-opacity="1"><g transform="translate(137.366853, 149.739909)"><g/></g></g><g fill="#000000" fill-opacity="1"><g transform="translate(139.500267, 149.739909)"><g><path d="M 1.578125 -13 L 2.875 -13 L 2.875 0 L 1.578125 0 Z M 1.578125 -13 "/></g></g></g><g fill="#000000" fill-opacity="1"><g transform="translate(142.190607, 149.739909)"><g><path d="M 1.484375 -8.921875 L 2.78125 -8.921875 L 2.78125 0 L 1.484375 0 Z M 2.140625 -11.046875 C 1.898438 -11.046875 1.695312 -11.125 1.53125 -11.28125 C 1.375 -11.445312 1.296875 -11.648438 1.296875 -11.890625 C 1.296875 -12.128906 1.375 -12.328125 1.53125 -12.484375 C 1.695312 -12.640625 1.898438 -12.71875 2.140625 -12.71875 C 2.367188 -12.71875 2.5625 -12.640625 2.71875 -12.484375 C 2.882812 -12.328125 2.96875 -12.128906 2.96875 -11.890625 C 2.96875 -11.648438 2.882812 -11.445312 2.71875 -11.28125 C 2.5625 -11.125 2.367188 -11.046875 2.140625 -11.046875 Z M 2.140625 -11.046875 "/></g></g></g><g fill="#000000" fill-opacity="1"><g transform="translate(144.695309, 149.739909)"><g><path d="M 3.90625 0.1875 C 3.34375 0.1875 2.859375 0.109375 2.453125 -0.046875 C 2.046875 -0.210938 1.707031 -0.394531 1.4375 -0.59375 C 1.113281 -0.8125 0.851562 -1.078125 0.65625 -1.390625 L 1.578125 -2.328125 C 1.753906 -2.078125 1.953125 -1.859375 2.171875 -1.671875 C 2.367188 -1.492188 2.613281 -1.335938 2.90625 -1.203125 C 3.195312 -1.078125 3.53125 -1.015625 3.90625 -1.015625 C 4.5625 -1.015625 5.050781 -1.15625 5.375 -1.4375 C 5.695312 -1.726562 5.859375 -2.085938 5.859375 -2.515625 C 5.859375 -2.847656 5.734375 -3.113281 5.484375 -3.3125 C 5.242188 -3.507812 4.945312 -3.671875 4.59375 -3.796875 C 4.238281 -3.929688 3.851562 -4.054688 3.4375 -4.171875 C 3.019531 -4.285156 2.632812 -4.4375 2.28125 -4.625 C 1.925781 -4.8125 1.625 -5.054688 1.375 -5.359375 C 1.132812 -5.671875 1.015625 -6.082031 1.015625 -6.59375 C 1.015625 -6.914062 1.085938 -7.226562 1.234375 -7.53125 C 1.378906 -7.832031 1.582031 -8.097656 1.84375 -8.328125 C 2.101562 -8.554688 2.414062 -8.742188 2.78125 -8.890625 C 3.144531 -9.035156 3.550781 -9.109375 4 -9.109375 C 4.46875 -9.109375 4.878906 -9.039062 5.234375 -8.90625 C 5.585938 -8.78125 5.882812 -8.640625 6.125 -8.484375 C 6.414062 -8.316406 6.664062 -8.117188 6.875 -7.890625 L 5.9375 -6.96875 C 5.800781 -7.144531 5.644531 -7.300781 5.46875 -7.4375 C 5.289062 -7.539062 5.082031 -7.640625 4.84375 -7.734375 C 4.601562 -7.835938 4.320312 -7.890625 4 -7.890625 C 3.488281 -7.890625 3.082031 -7.753906 2.78125 -7.484375 C 2.476562 -7.210938 2.328125 -6.914062 2.328125 -6.59375 C 2.328125 -6.269531 2.445312 -6.015625 2.6875 -5.828125 C 2.925781 -5.648438 3.222656 -5.5 3.578125 -5.375 C 3.929688 -5.25 4.316406 -5.125 4.734375 -5 C 5.160156 -4.882812 5.546875 -4.726562 5.890625 -4.53125 C 6.242188 -4.34375 6.539062 -4.085938 6.78125 -3.765625 C 7.03125 -3.441406 7.15625 -3.023438 7.15625 -2.515625 C 7.15625 -2.140625 7.078125 -1.785156 6.921875 -1.453125 C 6.773438 -1.128906 6.5625 -0.84375 6.28125 -0.59375 C 6.007812 -0.351562 5.671875 -0.160156 5.265625 -0.015625 C 4.859375 0.117188 4.40625 0.1875 3.90625 0.1875 Z M 3.90625 0.1875 "/></g></g></g><g fill="#000000" fill-opacity="1"><g transform="translate(150.912885, 149.739909)"><g><path d="M 4.6875 0.1875 C 3.914062 0.1875 3.3125 -0.0351562 2.875 -0.484375 C 2.445312 -0.929688 2.234375 -1.578125 2.234375 -2.421875 L 2.234375 -7.703125 L 0.5625 -7.703125 L 0.5625 -8.921875 L 1.578125 -8.921875 C 2.078125 -8.921875 2.328125 -9.226562 2.328125 -9.84375 L 2.328125 -11.890625 L 3.53125 -11.890625 L 3.53125 -8.921875 L 5.484375 -8.921875 L 5.484375 -7.703125 L 3.53125 -7.703125 L 3.53125 -2.421875 C 3.53125 -1.941406 3.640625 -1.585938 3.859375 -1.359375 C 4.078125 -1.128906 4.367188 -1.015625 4.734375 -1.015625 C 4.898438 -1.015625 5.054688 -1.023438 5.203125 -1.046875 C 5.347656 -1.078125 5.476562 -1.113281 5.59375 -1.15625 C 5.726562 -1.195312 5.84375 -1.242188 5.9375 -1.296875 L 5.9375 -0.09375 C 5.832031 -0.0390625 5.710938 0.0078125 5.578125 0.0625 C 5.460938 0.09375 5.328125 0.117188 5.171875 0.140625 C 5.015625 0.171875 4.851562 0.1875 4.6875 0.1875 Z M 4.6875 0.1875 "/></g></g></g></svg>