<svg xmlns="http://www.w3.org/2000/svg" xmlns:xlink="http://www.w3.org/1999/xlink" width="300" zoomAndPan="magnify" viewBox="0 0 224.87999 225" height="300" preserveAspectRatio="xMidYMid meet" version="1.0"><defs><g/><clipPath id="3c12c3586a"><path d="M 0 0.0585938 L 224.761719 0.0585938 L 224.761719 224.9375 L 0 224.9375 Z M 0 0.0585938 " clip-rule="nonzero"/></clipPath><clipPath id="8103407a5e"><path d="M 0 69.175781 L 8.785156 69.175781 L 8.785156 136.851562 L 0 136.851562 Z M 0 69.175781 " clip-rule="nonzero"/></clipPath><clipPath id="62c757dcdf"><path d="M 14.457031 69.144531 L 59 69.144531 L 59 108 L 14.457031 108 Z M 14.457031 69.144531 " clip-rule="nonzero"/></clipPath><clipPath id="c3d259a909"><path d="M 17 69.144531 L 75.234375 69.144531 L 75.234375 136.820312 L 17 136.820312 Z M 17 69.144531 " clip-rule="nonzero"/></clipPath></defs><g clip-path="url(#3c12c3586a)"><path fill="#ffffff" d="M 0 0.0585938 L 224.878906 0.0585938 L 224.878906 232.4375 L 0 232.4375 Z M 0 0.0585938 " fill-opacity="1" fill-rule="nonzero"/><path fill="#ffffff" d="M 0 0.0585938 L 224.878906 0.0585938 L 224.878906 224.941406 L 0 224.941406 Z M 0 0.0585938 " fill-opacity="1" fill-rule="nonzero"/><path fill="#ffffff" d="M 0 0.0585938 L 224.878906 0.0585938 L 224.878906 224.941406 L 0 224.941406 Z M 0 0.0585938 " fill-opacity="1" fill-rule="nonzero"/></g><g clip-path="url(#8103407a5e)"><path fill="#ffffff" d="M -30.210938 115.300781 C -29.609375 114.359375 -29.289062 113.894531 -29.007812 113.40625 C -20.539062 98.707031 -12.085938 84 -3.585938 69.316406 C -3.558594 69.273438 -3.523438 69.222656 -3.496094 69.175781 L 8.757812 69.175781 C -4.359375 91.992188 -17.128906 114.207031 -30.148438 136.851562 C -35.507812 127.605469 -40.613281 118.816406 -49.050781 104.222656 L -42.90625 93.535156 C -36.378906 104.722656 -33.363281 109.898438 -30.210938 115.300781 Z M -30.210938 115.300781 " fill-opacity="1" fill-rule="nonzero"/></g><g fill="#ffffff" fill-opacity="1"><g transform="translate(3.584963, 150.472595)"><g><path d="M 3.90625 0.1875 C 3.34375 0.1875 2.859375 0.109375 2.453125 -0.046875 C 2.046875 -0.210938 1.707031 -0.394531 1.4375 -0.59375 C 1.113281 -0.8125 0.851562 -1.078125 0.65625 -1.390625 L 1.578125 -2.328125 C 1.753906 -2.078125 1.953125 -1.859375 2.171875 -1.671875 C 2.367188 -1.492188 2.613281 -1.335938 2.90625 -1.203125 C 3.195312 -1.078125 3.53125 -1.015625 3.90625 -1.015625 C 4.5625 -1.015625 5.050781 -1.15625 5.375 -1.4375 C 5.695312 -1.726562 5.859375 -2.085938 5.859375 -2.515625 C 5.859375 -2.847656 5.734375 -3.113281 5.484375 -3.3125 C 5.242188 -3.507812 4.945312 -3.671875 4.59375 -3.796875 C 4.238281 -3.929688 3.851562 -4.054688 3.4375 -4.171875 C 3.019531 -4.285156 2.632812 -4.4375 2.28125 -4.625 C 1.925781 -4.8125 1.625 -5.054688 1.375 -5.359375 C 1.132812 -5.671875 1.015625 -6.082031 1.015625 -6.59375 C 1.015625 -6.914062 1.085938 -7.226562 1.234375 -7.53125 C 1.378906 -7.832031 1.582031 -8.097656 1.84375 -8.328125 C 2.101562 -8.554688 2.414062 -8.742188 2.78125 -8.890625 C 3.144531 -9.035156 3.550781 -9.109375 4 -9.109375 C 4.46875 -9.109375 4.878906 -9.039062 5.234375 -8.90625 C 5.585938 -8.78125 5.882812 -8.640625 6.125 -8.484375 C 6.414062 -8.316406 6.664062 -8.117188 6.875 -7.890625 L 5.9375 -6.96875 C 5.800781 -7.144531 5.644531 -7.300781 5.46875 -7.4375 C 5.289062 -7.539062 5.082031 -7.640625 4.84375 -7.734375 C 4.601562 -7.835938 4.320312 -7.890625 4 -7.890625 C 3.488281 -7.890625 3.082031 -7.753906 2.78125 -7.484375 C 2.476562 -7.210938 2.328125 -6.914062 2.328125 -6.59375 C 2.328125 -6.269531 2.445312 -6.015625 2.6875 -5.828125 C 2.925781 -5.648438 3.222656 -5.5 3.578125 -5.375 C 3.929688 -5.25 4.316406 -5.125 4.734375 -5 C 5.160156 -4.882812 5.546875 -4.726562 5.890625 -4.53125 C 6.242188 -4.34375 6.539062 -4.085938 6.78125 -3.765625 C 7.03125 -3.441406 7.15625 -3.023438 7.15625 -2.515625 C 7.15625 -2.140625 7.078125 -1.785156 6.921875 -1.453125 C 6.773438 -1.128906 6.5625 -0.84375 6.28125 -0.59375 C 6.007812 -0.351562 5.671875 -0.160156 5.265625 -0.015625 C 4.859375 0.117188 4.40625 0.1875 3.90625 0.1875 Z M 3.90625 0.1875 "/></g></g></g><g fill="#ffffff" fill-opacity="1"><g transform="translate(9.806616, 150.472595)"><g><path d="M 1.484375 -8.921875 L 2.78125 -8.921875 L 2.78125 -7.796875 C 2.945312 -8.035156 3.144531 -8.253906 3.375 -8.453125 C 3.59375 -8.609375 3.851562 -8.753906 4.15625 -8.890625 C 4.46875 -9.035156 4.847656 -9.109375 5.296875 -9.109375 C 5.828125 -9.109375 6.273438 -9.023438 6.640625 -8.859375 C 7.015625 -8.691406 7.316406 -8.503906 7.546875 -8.296875 C 7.804688 -8.078125 8.015625 -7.820312 8.171875 -7.53125 C 8.347656 -7.820312 8.578125 -8.078125 8.859375 -8.296875 C 9.109375 -8.503906 9.425781 -8.691406 9.8125 -8.859375 C 10.207031 -9.023438 10.679688 -9.109375 11.234375 -9.109375 C 11.722656 -9.109375 12.175781 -9.023438 12.59375 -8.859375 C 13.019531 -8.703125 13.382812 -8.460938 13.6875 -8.140625 C 14 -7.816406 14.238281 -7.414062 14.40625 -6.9375 C 14.582031 -6.457031 14.671875 -5.910156 14.671875 -5.296875 L 14.671875 0 L 13.375 0 L 13.375 -5.296875 C 13.375 -6.148438 13.164062 -6.796875 12.75 -7.234375 C 12.332031 -7.671875 11.796875 -7.890625 11.140625 -7.890625 C 10.816406 -7.890625 10.507812 -7.820312 10.21875 -7.6875 C 9.9375 -7.550781 9.679688 -7.351562 9.453125 -7.09375 C 9.234375 -6.84375 9.054688 -6.53125 8.921875 -6.15625 C 8.796875 -5.789062 8.734375 -5.378906 8.734375 -4.921875 L 8.734375 0 L 7.4375 0 L 7.4375 -5.296875 C 7.4375 -6.140625 7.226562 -6.78125 6.8125 -7.21875 C 6.394531 -7.664062 5.859375 -7.890625 5.203125 -7.890625 C 4.878906 -7.890625 4.570312 -7.820312 4.28125 -7.6875 C 3.988281 -7.550781 3.726562 -7.351562 3.5 -7.09375 C 3.28125 -6.84375 3.101562 -6.53125 2.96875 -6.15625 C 2.84375 -5.789062 2.78125 -5.378906 2.78125 -4.921875 L 2.78125 0 L 1.484375 0 Z M 1.484375 -8.921875 "/></g></g></g><g fill="#ffffff" fill-opacity="1"><g transform="translate(24.200771, 150.472595)"><g><path d="M 4 0.1875 C 3.519531 0.1875 3.085938 0.113281 2.703125 -0.03125 C 2.328125 -0.1875 2 -0.382812 1.71875 -0.625 C 1.4375 -0.863281 1.21875 -1.140625 1.0625 -1.453125 C 0.914062 -1.773438 0.84375 -2.097656 0.84375 -2.421875 C 0.84375 -3.160156 1.0625 -3.757812 1.5 -4.21875 C 1.945312 -4.675781 2.59375 -4.972656 3.4375 -5.109375 L 6.875 -5.671875 C 6.875 -6.328125 6.664062 -6.859375 6.25 -7.265625 C 5.832031 -7.679688 5.296875 -7.890625 4.640625 -7.890625 C 4.242188 -7.890625 3.890625 -7.820312 3.578125 -7.6875 C 3.273438 -7.550781 3.019531 -7.40625 2.8125 -7.25 C 2.5625 -7.050781 2.335938 -6.832031 2.140625 -6.59375 L 1.296875 -7.4375 C 1.546875 -7.738281 1.835938 -8.015625 2.171875 -8.265625 C 2.453125 -8.472656 2.796875 -8.664062 3.203125 -8.84375 C 3.617188 -9.019531 4.097656 -9.109375 4.640625 -9.109375 C 5.148438 -9.109375 5.617188 -9.019531 6.046875 -8.84375 C 6.484375 -8.664062 6.859375 -8.421875 7.171875 -8.109375 C 7.492188 -7.804688 7.738281 -7.441406 7.90625 -7.015625 C 8.082031 -6.597656 8.171875 -6.148438 8.171875 -5.671875 L 8.171875 0 L 6.875 0 L 6.875 -1.203125 C 6.6875 -0.941406 6.453125 -0.707031 6.171875 -0.5 C 5.921875 -0.320312 5.613281 -0.160156 5.25 -0.015625 C 4.894531 0.117188 4.476562 0.1875 4 0.1875 Z M 4 -1.015625 C 4.414062 -1.015625 4.800781 -1.085938 5.15625 -1.234375 C 5.507812 -1.378906 5.8125 -1.582031 6.0625 -1.84375 C 6.320312 -2.101562 6.519531 -2.414062 6.65625 -2.78125 C 6.800781 -3.144531 6.875 -3.550781 6.875 -4 L 6.875 -4.546875 L 3.8125 -4 C 2.695312 -3.78125 2.140625 -3.253906 2.140625 -2.421875 C 2.140625 -2.046875 2.296875 -1.71875 2.609375 -1.4375 C 2.921875 -1.15625 3.382812 -1.015625 4 -1.015625 Z M 4 -1.015625 "/></g></g></g><g fill="#ffffff" fill-opacity="1"><g transform="translate(32.094071, 150.472595)"><g><path d="M 1.484375 -8.921875 L 2.78125 -8.921875 L 2.78125 -7.703125 C 2.976562 -7.953125 3.222656 -8.179688 3.515625 -8.390625 C 3.765625 -8.566406 4.070312 -8.726562 4.4375 -8.875 C 4.800781 -9.03125 5.242188 -9.109375 5.765625 -9.109375 L 6.125 -9.109375 L 6.125 -7.796875 L 5.578125 -7.796875 C 5.203125 -7.796875 4.847656 -7.726562 4.515625 -7.59375 C 4.179688 -7.457031 3.882812 -7.265625 3.625 -7.015625 C 3.363281 -6.773438 3.15625 -6.476562 3 -6.125 C 2.851562 -5.769531 2.78125 -5.367188 2.78125 -4.921875 L 2.78125 0 L 1.484375 0 Z M 1.484375 -8.921875 "/></g></g></g><g fill="#ffffff" fill-opacity="1"><g transform="translate(36.736947, 150.472595)"><g><path d="M 4.6875 0.1875 C 3.914062 0.1875 3.3125 -0.0351562 2.875 -0.484375 C 2.445312 -0.929688 2.234375 -1.578125 2.234375 -2.421875 L 2.234375 -7.703125 L 0.5625 -7.703125 L 0.5625 -8.921875 L 1.578125 -8.921875 C 2.078125 -8.921875 2.328125 -9.226562 2.328125 -9.84375 L 2.328125 -11.890625 L 3.53125 -11.890625 L 3.53125 -8.921875 L 5.484375 -8.921875 L 5.484375 -7.703125 L 3.53125 -7.703125 L 3.53125 -2.421875 C 3.53125 -1.941406 3.640625 -1.585938 3.859375 -1.359375 C 4.078125 -1.128906 4.367188 -1.015625 4.734375 -1.015625 C 4.898438 -1.015625 5.054688 -1.023438 5.203125 -1.046875 C 5.347656 -1.078125 5.476562 -1.113281 5.59375 -1.15625 C 5.726562 -1.195312 5.84375 -1.242188 5.9375 -1.296875 L 5.9375 -0.09375 C 5.832031 -0.0390625 5.710938 0.0078125 5.578125 0.0625 C 5.460938 0.09375 5.328125 0.117188 5.171875 0.140625 C 5.015625 0.171875 4.851562 0.1875 4.6875 0.1875 Z M 4.6875 0.1875 "/></g></g></g><g fill="#ffffff" fill-opacity="1"><g transform="translate(41.658429, 150.472595)"><g/></g></g><g fill="#ffffff" fill-opacity="1"><g transform="translate(43.793829, 150.472595)"><g><path d="M 4.6875 0.1875 C 3.914062 0.1875 3.3125 -0.0351562 2.875 -0.484375 C 2.445312 -0.929688 2.234375 -1.578125 2.234375 -2.421875 L 2.234375 -7.703125 L 0.5625 -7.703125 L 0.5625 -8.921875 L 1.578125 -8.921875 C 2.078125 -8.921875 2.328125 -9.226562 2.328125 -9.84375 L 2.328125 -11.890625 L 3.53125 -11.890625 L 3.53125 -8.921875 L 5.484375 -8.921875 L 5.484375 -7.703125 L 3.53125 -7.703125 L 3.53125 -2.421875 C 3.53125 -1.941406 3.640625 -1.585938 3.859375 -1.359375 C 4.078125 -1.128906 4.367188 -1.015625 4.734375 -1.015625 C 4.898438 -1.015625 5.054688 -1.023438 5.203125 -1.046875 C 5.347656 -1.078125 5.476562 -1.113281 5.59375 -1.15625 C 5.726562 -1.195312 5.84375 -1.242188 5.9375 -1.296875 L 5.9375 -0.09375 C 5.832031 -0.0390625 5.710938 0.0078125 5.578125 0.0625 C 5.460938 0.09375 5.328125 0.117188 5.171875 0.140625 C 5.015625 0.171875 4.851562 0.1875 4.6875 0.1875 Z M 4.6875 0.1875 "/></g></g></g><g fill="#ffffff" fill-opacity="1"><g transform="translate(48.71531, 150.472595)"><g><path d="M 4 0.1875 C 3.519531 0.1875 3.085938 0.113281 2.703125 -0.03125 C 2.328125 -0.1875 2 -0.382812 1.71875 -0.625 C 1.4375 -0.863281 1.21875 -1.140625 1.0625 -1.453125 C 0.914062 -1.773438 0.84375 -2.097656 0.84375 -2.421875 C 0.84375 -3.160156 1.0625 -3.757812 1.5 -4.21875 C 1.945312 -4.675781 2.59375 -4.972656 3.4375 -5.109375 L 6.875 -5.671875 C 6.875 -6.328125 6.664062 -6.859375 6.25 -7.265625 C 5.832031 -7.679688 5.296875 -7.890625 4.640625 -7.890625 C 4.242188 -7.890625 3.890625 -7.820312 3.578125 -7.6875 C 3.273438 -7.550781 3.019531 -7.40625 2.8125 -7.25 C 2.5625 -7.050781 2.335938 -6.832031 2.140625 -6.59375 L 1.296875 -7.4375 C 1.546875 -7.738281 1.835938 -8.015625 2.171875 -8.265625 C 2.453125 -8.472656 2.796875 -8.664062 3.203125 -8.84375 C 3.617188 -9.019531 4.097656 -9.109375 4.640625 -9.109375 C 5.148438 -9.109375 5.617188 -9.019531 6.046875 -8.84375 C 6.484375 -8.664062 6.859375 -8.421875 7.171875 -8.109375 C 7.492188 -7.804688 7.738281 -7.441406 7.90625 -7.015625 C 8.082031 -6.597656 8.171875 -6.148438 8.171875 -5.671875 L 8.171875 0 L 6.875 0 L 6.875 -1.203125 C 6.6875 -0.941406 6.453125 -0.707031 6.171875 -0.5 C 5.921875 -0.320312 5.613281 -0.160156 5.25 -0.015625 C 4.894531 0.117188 4.476562 0.1875 4 0.1875 Z M 4 -1.015625 C 4.414062 -1.015625 4.800781 -1.085938 5.15625 -1.234375 C 5.507812 -1.378906 5.8125 -1.582031 6.0625 -1.84375 C 6.320312 -2.101562 6.519531 -2.414062 6.65625 -2.78125 C 6.800781 -3.144531 6.875 -3.550781 6.875 -4 L 6.875 -4.546875 L 3.8125 -4 C 2.695312 -3.78125 2.140625 -3.253906 2.140625 -2.421875 C 2.140625 -2.046875 2.296875 -1.71875 2.609375 -1.4375 C 2.921875 -1.15625 3.382812 -1.015625 4 -1.015625 Z M 4 -1.015625 "/></g></g></g><g fill="#ffffff" fill-opacity="1"><g transform="translate(56.60861, 150.472595)"><g><path d="M 3.90625 0.1875 C 3.34375 0.1875 2.859375 0.109375 2.453125 -0.046875 C 2.046875 -0.210938 1.707031 -0.394531 1.4375 -0.59375 C 1.113281 -0.8125 0.851562 -1.078125 0.65625 -1.390625 L 1.578125 -2.328125 C 1.753906 -2.078125 1.953125 -1.859375 2.171875 -1.671875 C 2.367188 -1.492188 2.613281 -1.335938 2.90625 -1.203125 C 3.195312 -1.078125 3.53125 -1.015625 3.90625 -1.015625 C 4.5625 -1.015625 5.050781 -1.15625 5.375 -1.4375 C 5.695312 -1.726562 5.859375 -2.085938 5.859375 -2.515625 C 5.859375 -2.847656 5.734375 -3.113281 5.484375 -3.3125 C 5.242188 -3.507812 4.945312 -3.671875 4.59375 -3.796875 C 4.238281 -3.929688 3.851562 -4.054688 3.4375 -4.171875 C 3.019531 -4.285156 2.632812 -4.4375 2.28125 -4.625 C 1.925781 -4.8125 1.625 -5.054688 1.375 -5.359375 C 1.132812 -5.671875 1.015625 -6.082031 1.015625 -6.59375 C 1.015625 -6.914062 1.085938 -7.226562 1.234375 -7.53125 C 1.378906 -7.832031 1.582031 -8.097656 1.84375 -8.328125 C 2.101562 -8.554688 2.414062 -8.742188 2.78125 -8.890625 C 3.144531 -9.035156 3.550781 -9.109375 4 -9.109375 C 4.46875 -9.109375 4.878906 -9.039062 5.234375 -8.90625 C 5.585938 -8.78125 5.882812 -8.640625 6.125 -8.484375 C 6.414062 -8.316406 6.664062 -8.117188 6.875 -7.890625 L 5.9375 -6.96875 C 5.800781 -7.144531 5.644531 -7.300781 5.46875 -7.4375 C 5.289062 -7.539062 5.082031 -7.640625 4.84375 -7.734375 C 4.601562 -7.835938 4.320312 -7.890625 4 -7.890625 C 3.488281 -7.890625 3.082031 -7.753906 2.78125 -7.484375 C 2.476562 -7.210938 2.328125 -6.914062 2.328125 -6.59375 C 2.328125 -6.269531 2.445312 -6.015625 2.6875 -5.828125 C 2.925781 -5.648438 3.222656 -5.5 3.578125 -5.375 C 3.929688 -5.25 4.316406 -5.125 4.734375 -5 C 5.160156 -4.882812 5.546875 -4.726562 5.890625 -4.53125 C 6.242188 -4.34375 6.539062 -4.085938 6.78125 -3.765625 C 7.03125 -3.441406 7.15625 -3.023438 7.15625 -2.515625 C 7.15625 -2.140625 7.078125 -1.785156 6.921875 -1.453125 C 6.773438 -1.128906 6.5625 -0.84375 6.28125 -0.59375 C 6.007812 -0.351562 5.671875 -0.160156 5.265625 -0.015625 C 4.859375 0.117188 4.40625 0.1875 3.90625 0.1875 Z M 3.90625 0.1875 "/></g></g></g><g fill="#ffffff" fill-opacity="1"><g transform="translate(62.830264, 150.472595)"><g><path d="M 1.578125 -13 L 2.875 -13 L 2.875 -4.1875 L 7.34375 -8.921875 L 8.921875 -8.921875 L 5.484375 -5.296875 L 9.28125 0 L 7.796875 0 L 4.640625 -4.359375 L 2.875 -2.515625 L 2.875 0 L 1.578125 0 Z M 1.578125 -13 "/></g></g></g><g fill="#ffffff" fill-opacity="1"><g transform="translate(70.537827, 150.472595)"><g/></g></g><g fill="#ffffff" fill-opacity="1"><g transform="translate(72.673227, 150.472595)"><g><path d="M 1.578125 -13 L 2.875 -13 L 2.875 0 L 1.578125 0 Z M 1.578125 -13 "/></g></g></g><g fill="#ffffff" fill-opacity="1"><g transform="translate(75.365845, 150.472595)"><g><path d="M 1.484375 -8.921875 L 2.78125 -8.921875 L 2.78125 0 L 1.484375 0 Z M 2.140625 -11.046875 C 1.898438 -11.046875 1.695312 -11.125 1.53125 -11.28125 C 1.375 -11.445312 1.296875 -11.648438 1.296875 -11.890625 C 1.296875 -12.128906 1.375 -12.328125 1.53125 -12.484375 C 1.695312 -12.640625 1.898438 -12.71875 2.140625 -12.71875 C 2.367188 -12.71875 2.5625 -12.640625 2.71875 -12.484375 C 2.882812 -12.328125 2.96875 -12.128906 2.96875 -11.890625 C 2.96875 -11.648438 2.882812 -11.445312 2.71875 -11.28125 C 2.5625 -11.125 2.367188 -11.046875 2.140625 -11.046875 Z M 2.140625 -11.046875 "/></g></g></g><g fill="#ffffff" fill-opacity="1"><g transform="translate(77.872725, 150.472595)"><g><path d="M 3.90625 0.1875 C 3.34375 0.1875 2.859375 0.109375 2.453125 -0.046875 C 2.046875 -0.210938 1.707031 -0.394531 1.4375 -0.59375 C 1.113281 -0.8125 0.851562 -1.078125 0.65625 -1.390625 L 1.578125 -2.328125 C 1.753906 -2.078125 1.953125 -1.859375 2.171875 -1.671875 C 2.367188 -1.492188 2.613281 -1.335938 2.90625 -1.203125 C 3.195312 -1.078125 3.53125 -1.015625 3.90625 -1.015625 C 4.5625 -1.015625 5.050781 -1.15625 5.375 -1.4375 C 5.695312 -1.726562 5.859375 -2.085938 5.859375 -2.515625 C 5.859375 -2.847656 5.734375 -3.113281 5.484375 -3.3125 C 5.242188 -3.507812 4.945312 -3.671875 4.59375 -3.796875 C 4.238281 -3.929688 3.851562 -4.054688 3.4375 -4.171875 C 3.019531 -4.285156 2.632812 -4.4375 2.28125 -4.625 C 1.925781 -4.8125 1.625 -5.054688 1.375 -5.359375 C 1.132812 -5.671875 1.015625 -6.082031 1.015625 -6.59375 C 1.015625 -6.914062 1.085938 -7.226562 1.234375 -7.53125 C 1.378906 -7.832031 1.582031 -8.097656 1.84375 -8.328125 C 2.101562 -8.554688 2.414062 -8.742188 2.78125 -8.890625 C 3.144531 -9.035156 3.550781 -9.109375 4 -9.109375 C 4.46875 -9.109375 4.878906 -9.039062 5.234375 -8.90625 C 5.585938 -8.78125 5.882812 -8.640625 6.125 -8.484375 C 6.414062 -8.316406 6.664062 -8.117188 6.875 -7.890625 L 5.9375 -6.96875 C 5.800781 -7.144531 5.644531 -7.300781 5.46875 -7.4375 C 5.289062 -7.539062 5.082031 -7.640625 4.84375 -7.734375 C 4.601562 -7.835938 4.320312 -7.890625 4 -7.890625 C 3.488281 -7.890625 3.082031 -7.753906 2.78125 -7.484375 C 2.476562 -7.210938 2.328125 -6.914062 2.328125 -6.59375 C 2.328125 -6.269531 2.445312 -6.015625 2.6875 -5.828125 C 2.925781 -5.648438 3.222656 -5.5 3.578125 -5.375 C 3.929688 -5.25 4.316406 -5.125 4.734375 -5 C 5.160156 -4.882812 5.546875 -4.726562 5.890625 -4.53125 C 6.242188 -4.34375 6.539062 -4.085938 6.78125 -3.765625 C 7.03125 -3.441406 7.15625 -3.023438 7.15625 -2.515625 C 7.15625 -2.140625 7.078125 -1.785156 6.921875 -1.453125 C 6.773438 -1.128906 6.5625 -0.84375 6.28125 -0.59375 C 6.007812 -0.351562 5.671875 -0.160156 5.265625 -0.015625 C 4.859375 0.117188 4.40625 0.1875 3.90625 0.1875 Z M 3.90625 0.1875 "/></g></g></g><g fill="#ffffff" fill-opacity="1"><g transform="translate(84.094379, 150.472595)"><g><path d="M 4.6875 0.1875 C 3.914062 0.1875 3.3125 -0.0351562 2.875 -0.484375 C 2.445312 -0.929688 2.234375 -1.578125 2.234375 -2.421875 L 2.234375 -7.703125 L 0.5625 -7.703125 L 0.5625 -8.921875 L 1.578125 -8.921875 C 2.078125 -8.921875 2.328125 -9.226562 2.328125 -9.84375 L 2.328125 -11.890625 L 3.53125 -11.890625 L 3.53125 -8.921875 L 5.484375 -8.921875 L 5.484375 -7.703125 L 3.53125 -7.703125 L 3.53125 -2.421875 C 3.53125 -1.941406 3.640625 -1.585938 3.859375 -1.359375 C 4.078125 -1.128906 4.367188 -1.015625 4.734375 -1.015625 C 4.898438 -1.015625 5.054688 -1.023438 5.203125 -1.046875 C 5.347656 -1.078125 5.476562 -1.113281 5.59375 -1.15625 C 5.726562 -1.195312 5.84375 -1.242188 5.9375 -1.296875 L 5.9375 -0.09375 C 5.832031 -0.0390625 5.710938 0.0078125 5.578125 0.0625 C 5.460938 0.09375 5.328125 0.117188 5.171875 0.140625 C 5.015625 0.171875 4.851562 0.1875 4.6875 0.1875 Z M 4.6875 0.1875 "/></g></g></g><g clip-path="url(#62c757dcdf)"><path fill="#ffffff" d="M 26.0625 69.144531 C 26.074219 69.160156 26.085938 69.175781 26.09375 69.191406 C 29.117188 74.25 32.007812 79.394531 34.953125 84.496094 C 35.328125 85.140625 35.789062 85.734375 36.378906 86.613281 C 39.777344 80.695312 43.0625 74.96875 46.410156 69.144531 L 58.179688 69.144531 C 50.882812 81.835938 43.648438 94.429688 36.34375 107.132812 C 35.925781 106.515625 35.707031 106.246094 35.535156 105.949219 C 31.277344 98.53125 27.007812 91.109375 22.757812 83.679688 C 22.183594 82.683594 21.613281 81.6875 21.046875 80.691406 C 20.933594 80.488281 20.816406 80.300781 20.699219 80.121094 C 20.667969 80.078125 20.644531 80.035156 20.613281 79.992188 L 19.242188 77.613281 L 19.144531 77.449219 L 14.34375 69.144531 Z M 26.0625 69.144531 " fill-opacity="1" fill-rule="nonzero"/></g><g clip-path="url(#c3d259a909)"><path fill="#ffffff" d="M 36.238281 115.269531 C 36.839844 114.328125 37.160156 113.863281 37.441406 113.375 C 45.910156 98.675781 54.367188 83.972656 62.863281 69.289062 C 62.890625 69.242188 62.925781 69.195312 62.953125 69.144531 L 75.207031 69.144531 C 62.089844 91.960938 49.320312 114.175781 36.300781 136.824219 C 30.941406 127.574219 25.835938 118.785156 17.398438 104.195312 L 23.546875 93.503906 C 30.070312 104.691406 33.085938 109.867188 36.238281 115.269531 Z M 36.238281 115.269531 " fill-opacity="1" fill-rule="nonzero"/></g><path fill="#ffffff" d="M 36.34375 107.132812 L 22.757812 83.675781 C 27.007812 91.109375 31.273438 98.527344 35.535156 105.945312 C 35.707031 106.246094 35.925781 106.515625 36.34375 107.132812 Z M 36.34375 107.132812 " fill-opacity="1" fill-rule="nonzero"/><path fill="#ffffff" d="M 19.242188 77.609375 L 20.613281 79.992188 C 20.644531 80.035156 20.667969 80.078125 20.699219 80.121094 Z M 19.242188 77.609375 " fill-opacity="1" fill-rule="nonzero"/><g fill="#ffffff" fill-opacity="1"><g transform="translate(63.668164, 132.579394)"><g><path d="M 10.90625 -27.765625 L 0.984375 -27.765625 L 0.984375 -34.71875 L 28.265625 -34.71875 L 28.265625 -27.765625 L 18.34375 -27.765625 L 18.34375 0 L 10.90625 0 Z M 10.90625 -27.765625 "/></g></g></g><g fill="#ffffff" fill-opacity="1"><g transform="translate(88.214005, 132.579394)"><g><path d="M 13.640625 -34.71875 L 22.0625 -34.71875 L 35.453125 0 L 27.53125 0 L 24.546875 -7.9375 L 11.15625 -7.9375 L 8.1875 0 L 0.25 0 Z M 22.0625 -14.625 L 17.953125 -26.03125 L 17.75 -26.03125 L 13.640625 -14.625 Z M 22.0625 -14.625 "/></g></g></g><g fill="#ffffff" fill-opacity="1"><g transform="translate(119.206627, 132.579394)"><g><path d="M 14.375 0.75 C 12.132812 0.75 10.175781 0.46875 8.5 -0.09375 C 6.832031 -0.65625 5.4375 -1.285156 4.3125 -1.984375 C 2.988281 -2.773438 1.878906 -3.6875 0.984375 -4.71875 L 5.953125 -9.671875 C 6.546875 -8.972656 7.253906 -8.34375 8.078125 -7.78125 C 8.773438 -7.320312 9.628906 -6.898438 10.640625 -6.515625 C 11.648438 -6.140625 12.816406 -5.953125 14.140625 -5.953125 C 16.117188 -5.953125 17.5625 -6.332031 18.46875 -7.09375 C 19.382812 -7.851562 19.84375 -8.796875 19.84375 -9.921875 C 19.84375 -10.910156 19.410156 -11.691406 18.546875 -12.265625 C 17.691406 -12.847656 16.617188 -13.367188 15.328125 -13.828125 C 14.035156 -14.296875 12.644531 -14.773438 11.15625 -15.265625 C 9.664062 -15.765625 8.273438 -16.421875 6.984375 -17.234375 C 5.703125 -18.046875 4.628906 -19.085938 3.765625 -20.359375 C 2.910156 -21.628906 2.484375 -23.273438 2.484375 -25.296875 C 2.484375 -26.648438 2.769531 -27.945312 3.34375 -29.1875 C 3.925781 -30.425781 4.753906 -31.507812 5.828125 -32.4375 C 6.898438 -33.363281 8.222656 -34.097656 9.796875 -34.640625 C 11.367188 -35.179688 13.144531 -35.453125 15.125 -35.453125 C 17.039062 -35.453125 18.734375 -35.203125 20.203125 -34.703125 C 21.679688 -34.210938 22.898438 -33.671875 23.859375 -33.078125 C 24.984375 -32.378906 25.957031 -31.601562 26.78125 -30.75 L 21.828125 -25.78125 C 21.296875 -26.34375 20.710938 -26.84375 20.078125 -27.28125 C 19.523438 -27.644531 18.847656 -27.984375 18.046875 -28.296875 C 17.253906 -28.609375 16.363281 -28.765625 15.375 -28.765625 C 13.488281 -28.765625 12.148438 -28.429688 11.359375 -27.765625 C 10.566406 -27.109375 10.171875 -26.285156 10.171875 -25.296875 C 10.171875 -24.304688 10.597656 -23.519531 11.453125 -22.9375 C 12.316406 -22.351562 13.390625 -21.832031 14.671875 -21.375 C 15.960938 -20.914062 17.351562 -20.4375 18.84375 -19.9375 C 20.332031 -19.4375 21.722656 -18.78125 23.015625 -17.96875 C 24.304688 -17.164062 25.378906 -16.125 26.234375 -14.84375 C 27.097656 -13.570312 27.53125 -11.929688 27.53125 -9.921875 C 27.53125 -8.492188 27.226562 -7.132812 26.625 -5.84375 C 26.03125 -4.5625 25.160156 -3.429688 24.015625 -2.453125 C 22.878906 -1.472656 21.5 -0.691406 19.875 -0.109375 C 18.257812 0.460938 16.425781 0.75 14.375 0.75 Z M 14.375 0.75 "/></g></g></g><g fill="#ffffff" fill-opacity="1"><g transform="translate(143.504504, 132.579394)"><g><path d="M 4.46875 -34.71875 L 11.90625 -34.71875 L 11.90625 -19.84375 L 25.296875 -34.71875 L 34.21875 -34.71875 L 21.328125 -20.328125 L 35.21875 0 L 26.53125 0 L 16.359375 -14.875 L 11.90625 -10.171875 L 11.90625 0 L 4.46875 0 Z M 4.46875 -34.71875 "/></g></g></g><g fill="#ffffff" fill-opacity="1"><g transform="translate(173.496267, 132.579394)"><g><path d="M 5.203125 -34.71875 L 8.921875 -34.71875 L 8.921875 0 L 5.203125 0 Z M 5.203125 -34.71875 "/></g></g></g><g fill="#ffffff" fill-opacity="1"><g transform="translate(182.916959, 132.579394)"><g><path d="M 11.90625 -31.25 L 0.984375 -31.25 L 0.984375 -34.71875 L 26.53125 -34.71875 L 26.53125 -31.25 L 15.625 -31.25 L 15.625 0 L 11.90625 0 Z M 11.90625 -31.25 "/></g></g></g><g fill="#ffffff" fill-opacity="1"><g transform="translate(70.034455, 149.709472)"><g><path d="M 3.90625 0.1875 C 3.34375 0.1875 2.859375 0.109375 2.453125 -0.046875 C 2.046875 -0.210938 1.707031 -0.394531 1.4375 -0.59375 C 1.113281 -0.8125 0.851562 -1.078125 0.65625 -1.390625 L 1.578125 -2.328125 C 1.753906 -2.078125 1.953125 -1.859375 2.171875 -1.671875 C 2.367188 -1.492188 2.613281 -1.335938 2.90625 -1.203125 C 3.195312 -1.078125 3.53125 -1.015625 3.90625 -1.015625 C 4.5625 -1.015625 5.050781 -1.15625 5.375 -1.4375 C 5.695312 -1.726562 5.859375 -2.085938 5.859375 -2.515625 C 5.859375 -2.847656 5.734375 -3.113281 5.484375 -3.3125 C 5.242188 -3.507812 4.945312 -3.671875 4.59375 -3.796875 C 4.238281 -3.929688 3.851562 -4.054688 3.4375 -4.171875 C 3.019531 -4.285156 2.632812 -4.4375 2.28125 -4.625 C 1.925781 -4.8125 1.625 -5.054688 1.375 -5.359375 C 1.132812 -5.671875 1.015625 -6.082031 1.015625 -6.59375 C 1.015625 -6.914062 1.085938 -7.226562 1.234375 -7.53125 C 1.378906 -7.832031 1.582031 -8.097656 1.84375 -8.328125 C 2.101562 -8.554688 2.414062 -8.742188 2.78125 -8.890625 C 3.144531 -9.035156 3.550781 -9.109375 4 -9.109375 C 4.46875 -9.109375 4.878906 -9.039062 5.234375 -8.90625 C 5.585938 -8.78125 5.882812 -8.640625 6.125 -8.484375 C 6.414062 -8.316406 6.664062 -8.117188 6.875 -7.890625 L 5.9375 -6.96875 C 5.800781 -7.144531 5.644531 -7.300781 5.46875 -7.4375 C 5.289062 -7.539062 5.082031 -7.640625 4.84375 -7.734375 C 4.601562 -7.835938 4.320312 -7.890625 4 -7.890625 C 3.488281 -7.890625 3.082031 -7.753906 2.78125 -7.484375 C 2.476562 -7.210938 2.328125 -6.914062 2.328125 -6.59375 C 2.328125 -6.269531 2.445312 -6.015625 2.6875 -5.828125 C 2.925781 -5.648438 3.222656 -5.5 3.578125 -5.375 C 3.929688 -5.25 4.316406 -5.125 4.734375 -5 C 5.160156 -4.882812 5.546875 -4.726562 5.890625 -4.53125 C 6.242188 -4.34375 6.539062 -4.085938 6.78125 -3.765625 C 7.03125 -3.441406 7.15625 -3.023438 7.15625 -2.515625 C 7.15625 -2.140625 7.078125 -1.785156 6.921875 -1.453125 C 6.773438 -1.128906 6.5625 -0.84375 6.28125 -0.59375 C 6.007812 -0.351562 5.671875 -0.160156 5.265625 -0.015625 C 4.859375 0.117188 4.40625 0.1875 3.90625 0.1875 Z M 3.90625 0.1875 "/></g></g></g><g fill="#ffffff" fill-opacity="1"><g transform="translate(76.252031, 149.709472)"><g><path d="M 1.484375 -8.921875 L 2.78125 -8.921875 L 2.78125 -7.796875 C 2.945312 -8.035156 3.144531 -8.253906 3.375 -8.453125 C 3.59375 -8.609375 3.851562 -8.753906 4.15625 -8.890625 C 4.46875 -9.035156 4.847656 -9.109375 5.296875 -9.109375 C 5.828125 -9.109375 6.273438 -9.023438 6.640625 -8.859375 C 7.015625 -8.691406 7.316406 -8.503906 7.546875 -8.296875 C 7.804688 -8.078125 8.015625 -7.820312 8.171875 -7.53125 C 8.347656 -7.820312 8.578125 -8.078125 8.859375 -8.296875 C 9.109375 -8.503906 9.425781 -8.691406 9.8125 -8.859375 C 10.207031 -9.023438 10.679688 -9.109375 11.234375 -9.109375 C 11.722656 -9.109375 12.175781 -9.023438 12.59375 -8.859375 C 13.019531 -8.703125 13.382812 -8.460938 13.6875 -8.140625 C 14 -7.816406 14.238281 -7.414062 14.40625 -6.9375 C 14.582031 -6.457031 14.671875 -5.910156 14.671875 -5.296875 L 14.671875 0 L 13.375 0 L 13.375 -5.296875 C 13.375 -6.148438 13.164062 -6.796875 12.75 -7.234375 C 12.332031 -7.671875 11.796875 -7.890625 11.140625 -7.890625 C 10.816406 -7.890625 10.507812 -7.820312 10.21875 -7.6875 C 9.9375 -7.550781 9.679688 -7.351562 9.453125 -7.09375 C 9.234375 -6.84375 9.054688 -6.53125 8.921875 -6.15625 C 8.796875 -5.789062 8.734375 -5.378906 8.734375 -4.921875 L 8.734375 0 L 7.4375 0 L 7.4375 -5.296875 C 7.4375 -6.140625 7.226562 -6.78125 6.8125 -7.21875 C 6.394531 -7.664062 5.859375 -7.890625 5.203125 -7.890625 C 4.878906 -7.890625 4.570312 -7.820312 4.28125 -7.6875 C 3.988281 -7.550781 3.726562 -7.351562 3.5 -7.09375 C 3.28125 -6.84375 3.101562 -6.53125 2.96875 -6.15625 C 2.84375 -5.789062 2.78125 -5.378906 2.78125 -4.921875 L 2.78125 0 L 1.484375 0 Z M 1.484375 -8.921875 "/></g></g></g><g fill="#ffffff" fill-opacity="1"><g transform="translate(90.637942, 149.709472)"><g><path d="M 4 0.1875 C 3.519531 0.1875 3.085938 0.113281 2.703125 -0.03125 C 2.328125 -0.1875 2 -0.382812 1.71875 -0.625 C 1.4375 -0.863281 1.21875 -1.140625 1.0625 -1.453125 C 0.914062 -1.773438 0.84375 -2.097656 0.84375 -2.421875 C 0.84375 -3.160156 1.0625 -3.757812 1.5 -4.21875 C 1.945312 -4.675781 2.59375 -4.972656 3.4375 -5.109375 L 6.875 -5.671875 C 6.875 -6.328125 6.664062 -6.859375 6.25 -7.265625 C 5.832031 -7.679688 5.296875 -7.890625 4.640625 -7.890625 C 4.242188 -7.890625 3.890625 -7.820312 3.578125 -7.6875 C 3.273438 -7.550781 3.019531 -7.40625 2.8125 -7.25 C 2.5625 -7.050781 2.335938 -6.832031 2.140625 -6.59375 L 1.296875 -7.4375 C 1.546875 -7.738281 1.835938 -8.015625 2.171875 -8.265625 C 2.453125 -8.472656 2.796875 -8.664062 3.203125 -8.84375 C 3.617188 -9.019531 4.097656 -9.109375 4.640625 -9.109375 C 5.148438 -9.109375 5.617188 -9.019531 6.046875 -8.84375 C 6.484375 -8.664062 6.859375 -8.421875 7.171875 -8.109375 C 7.492188 -7.804688 7.738281 -7.441406 7.90625 -7.015625 C 8.082031 -6.597656 8.171875 -6.148438 8.171875 -5.671875 L 8.171875 0 L 6.875 0 L 6.875 -1.203125 C 6.6875 -0.941406 6.453125 -0.707031 6.171875 -0.5 C 5.921875 -0.320312 5.613281 -0.160156 5.25 -0.015625 C 4.894531 0.117188 4.476562 0.1875 4 0.1875 Z M 4 -1.015625 C 4.414062 -1.015625 4.800781 -1.085938 5.15625 -1.234375 C 5.507812 -1.378906 5.8125 -1.582031 6.0625 -1.84375 C 6.320312 -2.101562 6.519531 -2.414062 6.65625 -2.78125 C 6.800781 -3.144531 6.875 -3.550781 6.875 -4 L 6.875 -4.546875 L 3.8125 -4 C 2.695312 -3.78125 2.140625 -3.253906 2.140625 -2.421875 C 2.140625 -2.046875 2.296875 -1.71875 2.609375 -1.4375 C 2.921875 -1.15625 3.382812 -1.015625 4 -1.015625 Z M 4 -1.015625 "/></g></g></g><g fill="#ffffff" fill-opacity="1"><g transform="translate(98.52631, 149.709472)"><g><path d="M 1.484375 -8.921875 L 2.78125 -8.921875 L 2.78125 -7.703125 C 2.976562 -7.953125 3.222656 -8.179688 3.515625 -8.390625 C 3.765625 -8.566406 4.070312 -8.726562 4.4375 -8.875 C 4.800781 -9.03125 5.242188 -9.109375 5.765625 -9.109375 L 6.125 -9.109375 L 6.125 -7.796875 L 5.578125 -7.796875 C 5.203125 -7.796875 4.847656 -7.726562 4.515625 -7.59375 C 4.179688 -7.457031 3.882812 -7.265625 3.625 -7.015625 C 3.363281 -6.773438 3.15625 -6.476562 3 -6.125 C 2.851562 -5.769531 2.78125 -5.367188 2.78125 -4.921875 L 2.78125 0 L 1.484375 0 Z M 1.484375 -8.921875 "/></g></g></g><g fill="#ffffff" fill-opacity="1"><g transform="translate(103.165912, 149.709472)"><g><path d="M 4.6875 0.1875 C 3.914062 0.1875 3.3125 -0.0351562 2.875 -0.484375 C 2.445312 -0.929688 2.234375 -1.578125 2.234375 -2.421875 L 2.234375 -7.703125 L 0.5625 -7.703125 L 0.5625 -8.921875 L 1.578125 -8.921875 C 2.078125 -8.921875 2.328125 -9.226562 2.328125 -9.84375 L 2.328125 -11.890625 L 3.53125 -11.890625 L 3.53125 -8.921875 L 5.484375 -8.921875 L 5.484375 -7.703125 L 3.53125 -7.703125 L 3.53125 -2.421875 C 3.53125 -1.941406 3.640625 -1.585938 3.859375 -1.359375 C 4.078125 -1.128906 4.367188 -1.015625 4.734375 -1.015625 C 4.898438 -1.015625 5.054688 -1.023438 5.203125 -1.046875 C 5.347656 -1.078125 5.476562 -1.113281 5.59375 -1.15625 C 5.726562 -1.195312 5.84375 -1.242188 5.9375 -1.296875 L 5.9375 -0.09375 C 5.832031 -0.0390625 5.710938 0.0078125 5.578125 0.0625 C 5.460938 0.09375 5.328125 0.117188 5.171875 0.140625 C 5.015625 0.171875 4.851562 0.1875 4.6875 0.1875 Z M 4.6875 0.1875 "/></g></g></g><g fill="#ffffff" fill-opacity="1"><g transform="translate(108.083984, 149.709472)"><g/></g></g><g fill="#ffffff" fill-opacity="1"><g transform="translate(110.217397, 149.709472)"><g><path d="M 4.6875 0.1875 C 3.914062 0.1875 3.3125 -0.0351562 2.875 -0.484375 C 2.445312 -0.929688 2.234375 -1.578125 2.234375 -2.421875 L 2.234375 -7.703125 L 0.5625 -7.703125 L 0.5625 -8.921875 L 1.578125 -8.921875 C 2.078125 -8.921875 2.328125 -9.226562 2.328125 -9.84375 L 2.328125 -11.890625 L 3.53125 -11.890625 L 3.53125 -8.921875 L 5.484375 -8.921875 L 5.484375 -7.703125 L 3.53125 -7.703125 L 3.53125 -2.421875 C 3.53125 -1.941406 3.640625 -1.585938 3.859375 -1.359375 C 4.078125 -1.128906 4.367188 -1.015625 4.734375 -1.015625 C 4.898438 -1.015625 5.054688 -1.023438 5.203125 -1.046875 C 5.347656 -1.078125 5.476562 -1.113281 5.59375 -1.15625 C 5.726562 -1.195312 5.84375 -1.242188 5.9375 -1.296875 L 5.9375 -0.09375 C 5.832031 -0.0390625 5.710938 0.0078125 5.578125 0.0625 C 5.460938 0.09375 5.328125 0.117188 5.171875 0.140625 C 5.015625 0.171875 4.851562 0.1875 4.6875 0.1875 Z M 4.6875 0.1875 "/></g></g></g><g fill="#ffffff" fill-opacity="1"><g transform="translate(115.135468, 149.709472)"><g><path d="M 4 0.1875 C 3.519531 0.1875 3.085938 0.113281 2.703125 -0.03125 C 2.328125 -0.1875 2 -0.382812 1.71875 -0.625 C 1.4375 -0.863281 1.21875 -1.140625 1.0625 -1.453125 C 0.914062 -1.773438 0.84375 -2.097656 0.84375 -2.421875 C 0.84375 -3.160156 1.0625 -3.757812 1.5 -4.21875 C 1.945312 -4.675781 2.59375 -4.972656 3.4375 -5.109375 L 6.875 -5.671875 C 6.875 -6.328125 6.664062 -6.859375 6.25 -7.265625 C 5.832031 -7.679688 5.296875 -7.890625 4.640625 -7.890625 C 4.242188 -7.890625 3.890625 -7.820312 3.578125 -7.6875 C 3.273438 -7.550781 3.019531 -7.40625 2.8125 -7.25 C 2.5625 -7.050781 2.335938 -6.832031 2.140625 -6.59375 L 1.296875 -7.4375 C 1.546875 -7.738281 1.835938 -8.015625 2.171875 -8.265625 C 2.453125 -8.472656 2.796875 -8.664062 3.203125 -8.84375 C 3.617188 -9.019531 4.097656 -9.109375 4.640625 -9.109375 C 5.148438 -9.109375 5.617188 -9.019531 6.046875 -8.84375 C 6.484375 -8.664062 6.859375 -8.421875 7.171875 -8.109375 C 7.492188 -7.804688 7.738281 -7.441406 7.90625 -7.015625 C 8.082031 -6.597656 8.171875 -6.148438 8.171875 -5.671875 L 8.171875 0 L 6.875 0 L 6.875 -1.203125 C 6.6875 -0.941406 6.453125 -0.707031 6.171875 -0.5 C 5.921875 -0.320312 5.613281 -0.160156 5.25 -0.015625 C 4.894531 0.117188 4.476562 0.1875 4 0.1875 Z M 4 -1.015625 C 4.414062 -1.015625 4.800781 -1.085938 5.15625 -1.234375 C 5.507812 -1.378906 5.8125 -1.582031 6.0625 -1.84375 C 6.320312 -2.101562 6.519531 -2.414062 6.65625 -2.78125 C 6.800781 -3.144531 6.875 -3.550781 6.875 -4 L 6.875 -4.546875 L 3.8125 -4 C 2.695312 -3.78125 2.140625 -3.253906 2.140625 -2.421875 C 2.140625 -2.046875 2.296875 -1.71875 2.609375 -1.4375 C 2.921875 -1.15625 3.382812 -1.015625 4 -1.015625 Z M 4 -1.015625 "/></g></g></g><g fill="#ffffff" fill-opacity="1"><g transform="translate(123.023836, 149.709472)"><g><path d="M 3.90625 0.1875 C 3.34375 0.1875 2.859375 0.109375 2.453125 -0.046875 C 2.046875 -0.210938 1.707031 -0.394531 1.4375 -0.59375 C 1.113281 -0.8125 0.851562 -1.078125 0.65625 -1.390625 L 1.578125 -2.328125 C 1.753906 -2.078125 1.953125 -1.859375 2.171875 -1.671875 C 2.367188 -1.492188 2.613281 -1.335938 2.90625 -1.203125 C 3.195312 -1.078125 3.53125 -1.015625 3.90625 -1.015625 C 4.5625 -1.015625 5.050781 -1.15625 5.375 -1.4375 C 5.695312 -1.726562 5.859375 -2.085938 5.859375 -2.515625 C 5.859375 -2.847656 5.734375 -3.113281 5.484375 -3.3125 C 5.242188 -3.507812 4.945312 -3.671875 4.59375 -3.796875 C 4.238281 -3.929688 3.851562 -4.054688 3.4375 -4.171875 C 3.019531 -4.285156 2.632812 -4.4375 2.28125 -4.625 C 1.925781 -4.8125 1.625 -5.054688 1.375 -5.359375 C 1.132812 -5.671875 1.015625 -6.082031 1.015625 -6.59375 C 1.015625 -6.914062 1.085938 -7.226562 1.234375 -7.53125 C 1.378906 -7.832031 1.582031 -8.097656 1.84375 -8.328125 C 2.101562 -8.554688 2.414062 -8.742188 2.78125 -8.890625 C 3.144531 -9.035156 3.550781 -9.109375 4 -9.109375 C 4.46875 -9.109375 4.878906 -9.039062 5.234375 -8.90625 C 5.585938 -8.78125 5.882812 -8.640625 6.125 -8.484375 C 6.414062 -8.316406 6.664062 -8.117188 6.875 -7.890625 L 5.9375 -6.96875 C 5.800781 -7.144531 5.644531 -7.300781 5.46875 -7.4375 C 5.289062 -7.539062 5.082031 -7.640625 4.84375 -7.734375 C 4.601562 -7.835938 4.320312 -7.890625 4 -7.890625 C 3.488281 -7.890625 3.082031 -7.753906 2.78125 -7.484375 C 2.476562 -7.210938 2.328125 -6.914062 2.328125 -6.59375 C 2.328125 -6.269531 2.445312 -6.015625 2.6875 -5.828125 C 2.925781 -5.648438 3.222656 -5.5 3.578125 -5.375 C 3.929688 -5.25 4.316406 -5.125 4.734375 -5 C 5.160156 -4.882812 5.546875 -4.726562 5.890625 -4.53125 C 6.242188 -4.34375 6.539062 -4.085938 6.78125 -3.765625 C 7.03125 -3.441406 7.15625 -3.023438 7.15625 -2.515625 C 7.15625 -2.140625 7.078125 -1.785156 6.921875 -1.453125 C 6.773438 -1.128906 6.5625 -0.84375 6.28125 -0.59375 C 6.007812 -0.351562 5.671875 -0.160156 5.265625 -0.015625 C 4.859375 0.117188 4.40625 0.1875 3.90625 0.1875 Z M 3.90625 0.1875 "/></g></g></g><g fill="#ffffff" fill-opacity="1"><g transform="translate(129.241412, 149.709472)"><g><path d="M 1.578125 -13 L 2.875 -13 L 2.875 -4.1875 L 7.34375 -8.921875 L 8.921875 -8.921875 L 5.484375 -5.296875 L 9.28125 0 L 7.796875 0 L 4.640625 -4.359375 L 2.875 -2.515625 L 2.875 0 L 1.578125 0 Z M 1.578125 -13 "/></g></g></g><g fill="#ffffff" fill-opacity="1"><g transform="translate(136.944141, 149.709472)"><g/></g></g><g fill="#ffffff" fill-opacity="1"><g transform="translate(139.077555, 149.709472)"><g><path d="M 1.578125 -13 L 2.875 -13 L 2.875 0 L 1.578125 0 Z M 1.578125 -13 "/></g></g></g><g fill="#ffffff" fill-opacity="1"><g transform="translate(141.767895, 149.709472)"><g><path d="M 1.484375 -8.921875 L 2.78125 -8.921875 L 2.78125 0 L 1.484375 0 Z M 2.140625 -11.046875 C 1.898438 -11.046875 1.695312 -11.125 1.53125 -11.28125 C 1.375 -11.445312 1.296875 -11.648438 1.296875 -11.890625 C 1.296875 -12.128906 1.375 -12.328125 1.53125 -12.484375 C 1.695312 -12.640625 1.898438 -12.71875 2.140625 -12.71875 C 2.367188 -12.71875 2.5625 -12.640625 2.71875 -12.484375 C 2.882812 -12.328125 2.96875 -12.128906 2.96875 -11.890625 C 2.96875 -11.648438 2.882812 -11.445312 2.71875 -11.28125 C 2.5625 -11.125 2.367188 -11.046875 2.140625 -11.046875 Z M 2.140625 -11.046875 "/></g></g></g><g fill="#ffffff" fill-opacity="1"><g transform="translate(144.272597, 149.709472)"><g><path d="M 3.90625 0.1875 C 3.34375 0.1875 2.859375 0.109375 2.453125 -0.046875 C 2.046875 -0.210938 1.707031 -0.394531 1.4375 -0.59375 C 1.113281 -0.8125 0.851562 -1.078125 0.65625 -1.390625 L 1.578125 -2.328125 C 1.753906 -2.078125 1.953125 -1.859375 2.171875 -1.671875 C 2.367188 -1.492188 2.613281 -1.335938 2.90625 -1.203125 C 3.195312 -1.078125 3.53125 -1.015625 3.90625 -1.015625 C 4.5625 -1.015625 5.050781 -1.15625 5.375 -1.4375 C 5.695312 -1.726562 5.859375 -2.085938 5.859375 -2.515625 C 5.859375 -2.847656 5.734375 -3.113281 5.484375 -3.3125 C 5.242188 -3.507812 4.945312 -3.671875 4.59375 -3.796875 C 4.238281 -3.929688 3.851562 -4.054688 3.4375 -4.171875 C 3.019531 -4.285156 2.632812 -4.4375 2.28125 -4.625 C 1.925781 -4.8125 1.625 -5.054688 1.375 -5.359375 C 1.132812 -5.671875 1.015625 -6.082031 1.015625 -6.59375 C 1.015625 -6.914062 1.085938 -7.226562 1.234375 -7.53125 C 1.378906 -7.832031 1.582031 -8.097656 1.84375 -8.328125 C 2.101562 -8.554688 2.414062 -8.742188 2.78125 -8.890625 C 3.144531 -9.035156 3.550781 -9.109375 4 -9.109375 C 4.46875 -9.109375 4.878906 -9.039062 5.234375 -8.90625 C 5.585938 -8.78125 5.882812 -8.640625 6.125 -8.484375 C 6.414062 -8.316406 6.664062 -8.117188 6.875 -7.890625 L 5.9375 -6.96875 C 5.800781 -7.144531 5.644531 -7.300781 5.46875 -7.4375 C 5.289062 -7.539062 5.082031 -7.640625 4.84375 -7.734375 C 4.601562 -7.835938 4.320312 -7.890625 4 -7.890625 C 3.488281 -7.890625 3.082031 -7.753906 2.78125 -7.484375 C 2.476562 -7.210938 2.328125 -6.914062 2.328125 -6.59375 C 2.328125 -6.269531 2.445312 -6.015625 2.6875 -5.828125 C 2.925781 -5.648438 3.222656 -5.5 3.578125 -5.375 C 3.929688 -5.25 4.316406 -5.125 4.734375 -5 C 5.160156 -4.882812 5.546875 -4.726562 5.890625 -4.53125 C 6.242188 -4.34375 6.539062 -4.085938 6.78125 -3.765625 C 7.03125 -3.441406 7.15625 -3.023438 7.15625 -2.515625 C 7.15625 -2.140625 7.078125 -1.785156 6.921875 -1.453125 C 6.773438 -1.128906 6.5625 -0.84375 6.28125 -0.59375 C 6.007812 -0.351562 5.671875 -0.160156 5.265625 -0.015625 C 4.859375 0.117188 4.40625 0.1875 3.90625 0.1875 Z M 3.90625 0.1875 "/></g></g></g><g fill="#ffffff" fill-opacity="1"><g transform="translate(150.490173, 149.709472)"><g><path d="M 4.6875 0.1875 C 3.914062 0.1875 3.3125 -0.0351562 2.875 -0.484375 C 2.445312 -0.929688 2.234375 -1.578125 2.234375 -2.421875 L 2.234375 -7.703125 L 0.5625 -7.703125 L 0.5625 -8.921875 L 1.578125 -8.921875 C 2.078125 -8.921875 2.328125 -9.226562 2.328125 -9.84375 L 2.328125 -11.890625 L 3.53125 -11.890625 L 3.53125 -8.921875 L 5.484375 -8.921875 L 5.484375 -7.703125 L 3.53125 -7.703125 L 3.53125 -2.421875 C 3.53125 -1.941406 3.640625 -1.585938 3.859375 -1.359375 C 4.078125 -1.128906 4.367188 -1.015625 4.734375 -1.015625 C 4.898438 -1.015625 5.054688 -1.023438 5.203125 -1.046875 C 5.347656 -1.078125 5.476562 -1.113281 5.59375 -1.15625 C 5.726562 -1.195312 5.84375 -1.242188 5.9375 -1.296875 L 5.9375 -0.09375 C 5.832031 -0.0390625 5.710938 0.0078125 5.578125 0.0625 C 5.460938 0.09375 5.328125 0.117188 5.171875 0.140625 C 5.015625 0.171875 4.851562 0.1875 4.6875 0.1875 Z M 4.6875 0.1875 "/></g></g></g></svg>